<?xml version="1.0" encoding="UTF-8"?>
<svg id="Layer_1" data-name="Layer 1" xmlns="http://www.w3.org/2000/svg" viewBox="0 0 512 512">
  <rect x="-.41" width="512" height="512" rx="70" ry="70" style="fill: #40a4ff;"/>
  <g>
    <g>
      <circle cx="255.59" cy="208.37" r="47.62" style="fill: #fff;"/>
      <path d="M255.59,275.06h0c39.42,0,71.43,32.01,71.43,71.43v52.38c0,10.51-8.53,19.05-19.05,19.05h-104.76c-10.51,0-19.05-8.53-19.05-19.05v-52.38c0-39.42,32.01-71.43,71.43-71.43Z" style="fill: #fff;"/>
    </g>
    <circle cx="127.02" cy="141.7" r="47.62" style="fill: #fff;"/>
    <circle cx="384.16" cy="141.7" r="47.62" style="fill: #fff;"/>
    <path d="M197.01,265.49c-1.06-5.23-2.72-10.24-4.85-14.98-2.24-3.36-4.21-6.92-5.9-10.62-12.84-19-34.57-31.5-59.23-31.5h0c-39.45,0-71.43,31.98-71.43,71.43v52.38c0,10.52,8.53,19.05,19.05,19.05h80.95v-4.76c0-33.28,16.34-62.8,41.42-80.99Z" style="fill: #fff;"/>
    <path d="M186.25,239.89c1.69,3.71,3.66,7.26,5.9,10.62-1.68-3.72-3.64-7.28-5.9-10.62Z" style="fill: #fff;"/>
    <path d="M384.16,208.39h0c-24.66,0-46.4,12.49-59.23,31.5-1.69,3.71-3.66,7.26-5.9,10.62-2.14,4.74-3.79,9.75-4.85,14.98,25.08,18.19,41.42,47.72,41.42,80.99v4.76h80.95c10.52,0,19.05-8.53,19.05-19.05v-52.38c0-39.45-31.98-71.43-71.43-71.43Z" style="fill: #fff;"/>
    <path d="M324.93,239.89c-2.26,3.35-4.23,6.91-5.9,10.62,2.24-3.36,4.21-6.92,5.9-10.62Z" style="fill: #fff;"/>
  </g>
</svg>