<?xml version="1.0" encoding="UTF-8"?>
<svg id="Layer_1" xmlns="http://www.w3.org/2000/svg" viewBox="0 0 512 512">
  <path d="M109.64,204.42c0-.56-.02-1.12-.02-1.69,0-39.1,15.23-75.86,42.87-103.51,27.65-27.65,64.41-42.87,103.51-42.87s75.86,15.23,103.51,42.87c27.65,27.65,42.87,64.41,42.87,103.51,0,.56-.01,1.12-.02,1.69h42.83c0-.56.02-1.12.02-1.69,0-104.5-84.71-189.21-189.21-189.21S66.79,98.24,66.79,202.74c0,.56.02,1.12.02,1.69h42.83Z" style="fill: #9e9e9f;"/>
  <path d="M110,208.44c0-19.27-19.1-32.89-37.23-26.36C30.34,197.34,0,237.93,0,285.62s30.34,88.28,72.77,103.54c18.14,6.52,37.23-7.09,37.23-26.36v-154.35Z" style="fill: #bcbdbd;"/>
  <path d="M444.9,343.49c-10.32,24.41-25.11,46.33-43.94,65.17-18.83,18.83-40.76,33.62-65.17,43.94-22.33,9.45-45.9,14.78-70.2,15.88-5.36.24-9.59,4.62-9.59,9.98h0c0,5.69,4.74,10.26,10.42,10,115.97-5.29,209.05-98.37,214.34-214.34.26-5.68-4.31-10.42-10-10.42h0c-5.36,0-9.74,4.23-9.98,9.59-1.11,24.29-6.44,47.87-15.88,70.2Z" style="fill: #9e9e9f;"/>
  <rect x="256" y="458.47" width="50" height="40" rx="20" ry="20" style="fill: #333;"/>
  <rect x="62.5" y="169.07" width="50" height="233.33" rx="25" ry="25" style="fill: #e8e8e8;"/>
  <path d="M402,208.44c0-19.27,19.1-32.89,37.23-26.36,42.43,15.26,72.77,55.86,72.77,103.54s-30.34,88.28-72.77,103.54c-18.14,6.52-37.23-7.09-37.23-26.36v-154.35Z" style="fill: #bcbdbd;"/>
  <rect x="399.5" y="169.07" width="50" height="233.33" rx="25" ry="25" style="fill: #e8e8e8;"/>
</svg>