<?xml version="1.0" encoding="UTF-8"?>
<svg id="Layer_1" xmlns="http://www.w3.org/2000/svg" viewBox="0 0 512 512">
  <g>
    <circle cx="228.11" cy="114.41" r="52.78" style="fill: #9ca3af;"/>
    <path d="M423.98,447.43h-26.14l-31.5-101.83c-3.42-11.05-13.64-18.59-25.21-18.59h-86.64v-43.52h78.69c14.57,0,26.39-11.81,26.39-26.39s-11.81-26.39-26.39-26.39h-78.69v-19.85c0-14.57-11.81-26.39-26.39-26.39s-26.39,11.81-26.39,26.39v142.54c0,14.57,11.81,26.39,26.39,26.39h32.51c-11.65,45.61-53.09,79.43-102.28,79.43-58.2,0-105.56-47.35-105.56-105.56s47.35-105.56,105.56-105.56c14.57,0,26.39-11.81,26.39-26.39s-11.81-26.39-26.39-26.39C71.03,195.33,0,266.36,0,353.67s71.03,158.33,158.33,158.33c78.41,0,143.68-57.29,156.17-132.21h7.18l31.5,101.83c3.42,11.05,13.64,18.59,25.21,18.59h45.6c14.57,0,26.39-11.81,26.39-26.39s-11.81-26.39-26.39-26.39Z" style="fill: #9ca3af;"/>
  </g>
  <g>
    <g>
      <circle cx="363.47" cy="13.73" r="13.73" style="fill: #9ca3af;"/>
      <path d="M383.75,32.45h-40.56c-8.24,0-14.93,6.68-14.93,14.93v59.7c0,3.43,2.78,6.21,6.21,6.21h0c3.43,0,6.21-2.78,6.21-6.21v-53.27c0-1.45,1.06-2.75,2.5-2.88,1.66-.16,3.05,1.14,3.05,2.76v59.6h0v73.61c0,3.99,3.24,7.23,7.23,7.23h0c3.99,0,7.23-3.24,7.23-7.23v-70.71c0-1.45,1.06-2.75,2.5-2.88,1.66-.16,3.05,1.14,3.05,2.76v70.83c0,3.99,3.24,7.23,7.23,7.23h0c3.99,0,7.23-3.24,7.23-7.23v-73.61h0v-59.48c0-1.39,1.12-2.75,2.51-2.88,1.66-.16,3.05,1.14,3.05,2.76v53.39c0,3.43,2.78,6.21,6.21,6.21h0c3.43,0,6.21-2.78,6.21-6.21v-59.7c0-8.24-6.68-14.93-14.93-14.93Z" style="fill: #9ca3af;"/>
    </g>
    <g>
      <circle cx="466.82" cy="13.73" r="13.73" style="fill: #9ca3af;"/>
      <path d="M511.79,101.16l-15.45-57.66c-1.53-5.7-6.16-9.73-11.58-10.78-.81-.16-1.63-.25-2.47-.27h-31.41c-.67.03-1.33.11-1.98.22-5.53.98-10.28,5.03-11.83,10.82l-15.45,57.66c-.89,3.31,1.08,6.72,4.39,7.61,3.31.89,6.72-1.08,7.61-4.39l13.82-51.57c.1-.39.29-.74.53-1.03l-11.51,76.94c-.45,3.03,1.63,5.79,4.37,5.79h8.77v52.39c0,3.99,3.24,7.23,7.23,7.23,0,0,.02,0,.02,0,0,0,.01,0,.02,0,3.99,0,7.23-3.24,7.23-7.23v-52.39h5.51v52.39c0,3.99,3.24,7.23,7.23,7.23,0,0,.02,0,.02,0,0,0,.02,0,.02,0,3.99,0,7.23-3.24,7.23-7.23v-52.39h8.48c2.74,0,4.82-2.76,4.37-5.79l-11.51-76.92c.24.29.42.63.53,1.02l13.82,51.57c.89,3.31,4.29,5.28,7.61,4.39,3.31-.89,5.28-4.29,4.39-7.61Z" style="fill: #9ca3af;"/>
    </g>
  </g>
</svg>