<?xml version="1.0" encoding="UTF-8"?>
<svg id="Layer_1" xmlns="http://www.w3.org/2000/svg" viewBox="0 0 20 20">
  <path d="M10,0C4.48,0,0,4.48,0,10s4.48,10,10,10,10-4.48,10-10S15.52,0,10,0ZM16.52,16.52c-.85.85-1.83,1.51-2.93,1.98-1.02.43-2.09.67-3.2.72v-4.29c0-.22-.17-.39-.39-.39s-.39.17-.39.39v4.29c-1.11-.05-2.18-.29-3.2-.72-1.1-.46-2.08-1.13-2.93-1.98-.85-.85-1.51-1.83-1.98-2.93-.43-1.02-.67-2.09-.72-3.2h4.29c.22,0,.39-.17.39-.39s-.17-.39-.39-.39H.79c.05-1.11.29-2.18.72-3.2.46-1.1,1.13-2.08,1.98-2.93.85-.85,1.83-1.51,2.93-1.98,1.02-.43,2.09-.67,3.2-.72v4.29c0,.22.17.39.39.39s.39-.17.39-.39V.79c1.11.05,2.18.29,3.2.72,1.1.46,2.08,1.13,2.93,1.98.85.85,1.51,1.83,1.98,2.93.43,1.02.67,2.09.72,3.2h-4.29c-.22,0-.39.17-.39.39s.17.39.39.39h4.29c-.05,1.11-.29,2.18-.72,3.2-.46,1.1-1.13,2.08-1.98,2.93Z" style="fill: #007aff;"/>
  <circle cx="10" cy="10" r="1.46" style="fill: #007aff;"/>
</svg>