<?xml version="1.0" encoding="UTF-8"?>
<svg id="Layer_1" xmlns="http://www.w3.org/2000/svg" viewBox="0 0 512 512">
  <path d="M203.97,428.75h-62.44c-1.83,0-3.57-.33-5.2-.91v42.53c0,22.95,18.67,41.63,41.63,41.63h156.1c22.95,0,41.63-18.67,41.63-41.63V210.21c0-22.95-18.67-41.63-41.63-41.63h-156.1c-22.95,0-41.63,18.67-41.63,41.63v42.53c1.63-.58,3.38-.91,5.2-.91h62.44c8.62,0,15.61,6.99,15.61,15.61s-6.99,15.61-15.61,15.61h-62.44c-1.83,0-3.57-.33-5.2-.91v43.44c1.63-.58,3.38-.91,5.2-.91h93.66c8.62,0,15.61,6.99,15.61,15.61s-6.99,15.61-15.61,15.61h-93.66c-1.83,0-3.57-.33-5.2-.91v43.44c1.63-.58,3.38-.91,5.2-.91h62.44c8.62,0,15.61,6.99,15.61,15.61s-6.99,15.61-15.61,15.61Z" style="fill: #ff8080;"/>
  <path d="M256,0c-8.61,0-15.61,7-15.61,15.61v17.9c0,5.46-4.22,10-9.67,10.38-28.98,2.05-52.36,24-57.09,51.85h164.75c-4.73-27.85-28.11-49.81-57.09-51.85-5.45-.39-9.67-4.92-9.67-10.38V15.61c0-8.61-7-15.61-15.61-15.61Z" style="fill: #ff8080;"/>
  <path d="M151.93,116.55c-8.61,0-15.61,7-15.61,15.61s7,15.61,15.61,15.61h208.13c8.61,0,15.61-7,15.61-15.61s-7-15.61-15.61-15.61h-208.13Z" style="fill: #ff8080;"/>
</svg>