<?xml version="1.0" encoding="UTF-8"?>
<svg id="Layer_1" xmlns="http://www.w3.org/2000/svg" viewBox="0 0 512 512">
  <rect width="512" height="512" rx="70" ry="70" style="fill: #40a4ff;"/>
  <path d="M411.68,318.35v-145.09c0-62-50.26-112.26-112.26-112.26h-86.84c-62,0-112.26,50.26-112.26,112.26v145.09c0,27.85,21.09,50.78,48.17,53.69l-46.08,62.07c-3.48,4.69-2.5,11.32,2.19,14.8,4.69,3.48,11.32,2.5,14.8-2.19l17.4-23.44h238.4l17.4,23.44c3.48,4.69,10.11,5.67,14.8,2.19,4.69-3.48,5.67-10.11,2.19-14.8l-46.08-62.07c27.08-2.91,48.17-25.84,48.17-53.69ZM200.93,116.07c0-4.97,4.03-9,9-9h92.14c4.97,0,9,4.03,9,9h0c0,4.97-4.03,9-9,9h-92.14c-4.97,0-9-4.03-9-9h0ZM130.5,307.49c0-12.14,9.84-21.98,21.98-21.98s21.98,9.84,21.98,21.98-9.84,21.98-21.98,21.98-21.98-9.84-21.98-21.98ZM152.51,402.12l22.1-29.76h162.79l22.1,29.76h-206.98ZM359.52,329.47c-12.14,0-21.98-9.84-21.98-21.98s9.84-21.98,21.98-21.98,21.98,9.84,21.98,21.98-9.84,21.98-21.98,21.98ZM381.5,242.63c0,4.97-4.03,9-9,9h-232.99c-4.97,0-9-4.03-9-9v-81.02c0-4.97,4.03-9,9-9h232.99c4.97,0,9,4.03,9,9v81.02Z" style="fill: #fff;"/>
</svg>