<?xml version="1.0" encoding="UTF-8"?>
<svg id="Layer_1" xmlns="http://www.w3.org/2000/svg" viewBox="0 0 512 512">
  <circle cx="92.03" cy="429.99" r="64.41" style="fill: #ccc;"/>
  <circle cx="378.5" cy="429.99" r="64.41" style="fill: #ccc;"/>
  <path d="M490,136.14h-49.05c-6.6,0-11.95-5.35-11.95-11.95V6.09c0-6.82-9.49-8.48-11.81-2.06l-60.45,167.68c-2.81,7.8,2.97,16.03,11.26,16.03h49.05c6.6,0,11.95,5.35,11.95,11.95v118.1c0,6.82,9.49,8.48,11.81,2.06l60.45-167.68c2.81-7.8-2.97-16.03-11.26-16.03Z" style="fill: #1ed45a;"/>
  <path d="M278.28,457.33c-2.38-8.71-3.66-17.88-3.66-27.34,0-33.3,15.75-62.98,40.19-82.01h-159.11c24.44,19.02,40.19,48.71,40.19,82.01,0,9.46-1.28,18.62-3.66,27.34h86.04Z" style="fill: #cc2e2e;"/>
  <path d="M92.03,347.99c-45.29,0-82.01,36.72-82.01,82.01s36.72,82.01,82.01,82.01,82.01-36.72,82.01-82.01-36.72-82.01-82.01-82.01ZM92.03,471.67c-23.02,0-41.67-18.66-41.67-41.67s18.66-41.67,41.67-41.67,41.67,18.66,41.67,41.67-18.66,41.67-41.67,41.67Z" style="fill: #5b5b5b;"/>
  <path d="M378.5,347.99c-45.29,0-82.01,36.72-82.01,82.01s36.72,82.01,82.01,82.01,82.01-36.72,82.01-82.01-36.72-82.01-82.01-82.01ZM378.5,471.67c-23.02,0-41.67-18.66-41.67-41.67s18.66-41.67,41.67-41.67,41.67,18.66,41.67,41.67-18.66,41.67-41.67,41.67Z" style="fill: #5b5b5b;"/>
  <path d="M306.65,249.58h-110.39L157.83,31.63c-3.67-20.81-23.52-34.71-44.33-31.04h0c-20.81,3.67-34.71,23.52-31.04,44.33l43.67,247.66c.47,2.64,1.19,5.17,2.15,7.56,5.12,15.1,19.41,25.97,36.24,25.97h142.14c21.14,0,38.27-17.13,38.27-38.27h0c0-21.14-17.13-38.27-38.27-38.27Z" style="fill: #424242;"/>
  <path d="M279.79,170.31c0-4.53-3.67-8.2-8.2-8.2s-8.2,3.67-8.2,8.2v13.67h16.4v-13.67Z" style="fill: #c43d3d;"/>
  <path d="M294.68,183.98h-110.03l5.78,32.8h104.24c9.06,0,16.4-7.34,16.4-16.4s-7.34-16.4-16.4-16.4Z" style="fill: #2b2b2b;"/>
</svg>