<?xml version="1.0" encoding="UTF-8"?>
<svg id="Layer_1" xmlns="http://www.w3.org/2000/svg" viewBox="0 0 512 512">
  <path d="M32.56-116.29l-22.51,5.66-49.19-80.89c-5.34-8.78-15.78-13.06-25.74-10.55l-74.62,18.77-9.43-37.49,67.78-17.05c12.55-3.16,20.17-15.89,17.01-28.45-3.16-12.55-15.89-20.17-28.45-17.01l-67.78,17.05-4.3-17.1c-3.16-12.55-15.89-20.17-28.45-17.01s-20.17,15.89-17.01,28.45l30.88,122.77c3.16,12.55,15.89,20.17,28.45,17.01l28-7.04c-.16,41.81-28.52,79.92-70.89,90.58-50.13,12.61-101.18-17.92-113.79-68.05-12.61-50.13,17.92-101.18,68.05-113.79,12.55-3.16,20.17-15.89,17.01-28.45-3.16-12.55-15.89-20.17-28.45-17.01-75.2,18.92-120.99,95.48-102.07,170.68S-257.45,15.79-182.26-3.13c67.54-16.99,111.34-80.48,105.86-147.71l6.18-1.56L-21.02-71.51c5.34,8.78,15.78,13.06,25.74,10.55l39.27-9.88c12.55-3.16,20.17-15.89,17.01-28.45-3.16-12.55-15.89-20.17-28.45-17.01Z"/>
  <g>
    <g>
      <circle cx="285.16" cy="56.3" r="50.82" style="fill: #ff9500;"/>
      <path d="M473.77,376.96h-25.17l-30.33-98.05c-3.29-10.64-13.13-17.9-24.27-17.9h-83.42v-41.91h75.77c14.03,0,25.41-11.38,25.41-25.41s-11.38-25.41-25.41-25.41h-75.77v-19.11c0-14.03-11.38-25.41-25.41-25.41s-25.41,11.38-25.41,25.41v137.25c0,14.03,11.38,25.41,25.41,25.41h31.3c-11.22,43.92-51.12,76.49-98.49,76.49-56.04,0-101.64-45.59-101.64-101.64s45.59-101.64,101.64-101.64c14.03,0,25.41-11.38,25.41-25.41s-11.38-25.41-25.41-25.41c-84.06,0-152.46,68.39-152.46,152.46s68.39,152.46,152.46,152.46c75.5,0,138.34-55.17,150.37-127.31h6.91l30.33,98.05c3.29,10.64,13.13,17.9,24.27,17.9h43.9c14.03,0,25.41-11.38,25.41-25.41s-11.38-25.41-25.41-25.41Z" style="fill: #ff9500;"/>
    </g>
    <g>
      <path d="M124.59,437.25c-11.38-7.08-21.9-15.41-31.37-24.81l-27.26,15.74v11.83h53.85l4.79-2.76Z" style="fill: #ff9500;"/>
      <path d="M217.98,363.53c23.38,0,44.76-10.52,59.01-27.59-10.51-1.73-19.92-6.73-27.16-13.92l-61.55,35.54c9.14,3.85,19.18,5.98,29.7,5.98Z" style="fill: #ff9500;"/>
      <path d="M285.16,311.83h31.3c-1.65,6.45-3.93,12.64-6.75,18.53l103.95-60.01c-4.72-5.78-11.87-9.34-19.67-9.34h-38.5l-82.57,47.67c3.63,2,7.8,3.14,12.24,3.14Z" style="fill: #ff9500;"/>
      <path d="M408.98,238.48c10.71,3.32,19.97,10.14,26.32,19.37l67.4-38.92c8.89-5.13,11.93-16.5,6.8-25.39h0c-5.13-8.89-16.5-11.93-25.39-6.8l-53.78,31.05c-4.87,8.85-12.33,16.1-21.36,20.68Z" style="fill: #ff9500;"/>
      <path d="M149.5,422.86l60.44-34.9c-17.18-1.35-33.17-6.99-46.9-15.84l-47.47,27.41c10.16,9.22,21.56,17.09,33.92,23.33Z" style="fill: #ff9500;"/>
      <path d="M30.32,470.21c5.13,8.89,16.5,11.93,25.39,6.8l21.17-12.22h-35.71v-22.31l-4.05,2.34c-8.89,5.13-11.93,16.5-6.8,25.39Z" style="fill: #ff9500;"/>
    </g>
    <path d="M491.6,464.9H41.62v-168.65c0-11.08-8.98-20.06-20.06-20.06h-1.49c-11.08,0-20.06,8.98-20.06,20.06v190.21c0,11.08,8.98,20.06,20.06,20.06h471.53c11.27,0,20.4-9.13,20.4-20.4v-.82c0-11.27-9.13-20.4-20.4-20.4Z" style="fill: #ff9500;"/>
  </g>
</svg>