<?xml version="1.0" encoding="UTF-8"?>
<svg id="Layer_1" xmlns="http://www.w3.org/2000/svg" xmlns:xlink="http://www.w3.org/1999/xlink" viewBox="0 0 25 35">
  <defs>
    <radialGradient id="radial-gradient" cx="12.5" cy="77.84" fx="12.5" fy="77.84" r="6.17" gradientTransform="translate(-12.35 .9) scale(1.99 .41)" gradientUnits="userSpaceOnUse">
      <stop offset="0" stop-color="#0c0c0d" stop-opacity=".25"/>
      <stop offset="1" stop-color="#fff" stop-opacity="0"/>
    </radialGradient>
    <linearGradient id="linear-gradient" x1="12.5" y1="0" x2="12.5" y2="33" gradientUnits="userSpaceOnUse">
      <stop offset="0" stop-color="#01e9bd"/>
      <stop offset="1" stop-color="#6bb5ff"/>
    </linearGradient>
    <filter id="drop-shadow-1" filterUnits="userSpaceOnUse">
      <feOffset dx="0" dy="1"/>
      <feGaussianBlur result="blur" stdDeviation="4"/>
      <feFlood flood-color="#0c0c0d" flood-opacity=".1"/>
      <feComposite in2="blur" operator="in"/>
      <feComposite in="SourceGraphic"/>
    </filter>
  </defs>
  <ellipse cx="12.5" cy="33" rx="12.5" ry="2" style="fill: url(#radial-gradient);"/>
  <path d="M12.5,0C5.99,0,.71,5.28.71,11.79c0,.87.1,1.71.28,2.52,1.33,6.89,11.51,18.7,11.51,18.7,0,0,10.17-11.8,11.51-18.7.18-.81.28-1.65.28-2.52C24.29,5.28,19.01,0,12.5,0Z" style="fill: url(#linear-gradient); filter: url(#drop-shadow-1);"/>
  <circle cx="12.53" cy="11.36" r="8.49" style="fill: #fff;"/>
  <path d="M18.28,9.86c-.02-.31-.09-.62-.19-.92-.17-.53-.46-1.01-.88-1.41-.35-.36-.75-.62-1.2-.77-.37-.13-.76-.19-1.17-.15-.76.04-1.41.38-1.95.92-.12.12-.24.26-.36.4-.13-.14-.24-.28-.36-.4-.54-.54-1.19-.88-1.95-.92-.41-.03-.8.02-1.17.15-.45.15-.85.41-1.2.77-.42.4-.7.88-.88,1.41-.1.3-.17.6-.19.92,0,.01,0,.03-.01.04v.59c.01.08.03.17.04.25,0,.07.02.15.03.22,0,0,0,0,0,0,0,0,0,0,0,.01.01.09.03.18.05.26.21.91.66,1.7,1.23,2.43.65.83,1.41,1.52,2.26,2.13.61.45,1.26.85,1.92,1.22,0,0,.02.01.03.02.06.04.13.06.19.06,0,0,0,0,.01,0,0,0,0,0,.01,0,.07,0,.13-.02.19-.06,0,0,.02-.01.03-.02.66-.37,1.31-.77,1.92-1.22.84-.6,1.61-1.3,2.26-2.13.57-.73,1.01-1.52,1.23-2.43.02-.09.04-.18.05-.26,0,0,0,0,0-.01,0,0,0,0,0,0,.01-.07.02-.15.03-.22.01-.08.02-.17.04-.25v-.59s0-.03-.01-.04ZM13.9,12.36l-1.67,2.91c-.06.11-.23.05-.21-.08l.39-2.19c.02-.12-.06-.24-.18-.26l-.91-.16c-.15-.03-.23-.2-.16-.33l1.67-2.91c.06-.11.23-.05.21.08l-.39,2.19c-.02.12.06.24.18.26l.91.16c.15.03.23.2.16.33Z" style="fill: #ff4a4a;"/>
</svg>