<?xml version="1.0" encoding="UTF-8"?>
<svg id="Layer_1" xmlns="http://www.w3.org/2000/svg" xmlns:xlink="http://www.w3.org/1999/xlink" viewBox="0 0 25 35">
  <defs>
    <radialGradient id="radial-gradient" cx="12.5" cy="77.84" fx="12.5" fy="77.84" r="6.17" gradientTransform="translate(-12.35 .9) scale(1.99 .41)" gradientUnits="userSpaceOnUse">
      <stop offset="0" stop-color="#0c0c0d" stop-opacity=".25"/>
      <stop offset="1" stop-color="#fff" stop-opacity="0"/>
    </radialGradient>
    <linearGradient id="linear-gradient" x1="12.5" y1="0" x2="12.5" y2="33" gradientUnits="userSpaceOnUse">
      <stop offset="0" stop-color="#01e9bd"/>
      <stop offset="1" stop-color="#6bb5ff"/>
    </linearGradient>
    <filter id="drop-shadow-1" filterUnits="userSpaceOnUse">
      <feOffset dx="0" dy="1"/>
      <feGaussianBlur result="blur" stdDeviation="4"/>
      <feFlood flood-color="#0c0c0d" flood-opacity=".1"/>
      <feComposite in2="blur" operator="in"/>
      <feComposite in="SourceGraphic"/>
    </filter>
  </defs>
  <ellipse cx="12.5" cy="33" rx="12.5" ry="2" style="fill: url(#radial-gradient);"/>
  <path d="M12.5,0C5.99,0,.71,5.28.71,11.79c0,.87.1,1.71.28,2.52,1.33,6.89,11.51,18.7,11.51,18.7,0,0,10.17-11.8,11.51-18.7.18-.81.28-1.65.28-2.52C24.29,5.28,19.01,0,12.5,0Z" style="fill: url(#linear-gradient); filter: url(#drop-shadow-1);"/>
  <circle cx="12.53" cy="11.36" r="8.49" style="fill: #fff;"/>
  <g>
    <path d="M17.72,9.91c-.32-2.58-2.52-4.58-5.18-4.58s-4.87,2-5.18,4.58c-.89.42-1.5,1.32-1.5,2.36,0,1.13.72,2.09,1.73,2.46.43.15.88-.17.88-.63v-3.66c0-.18-.07-.34-.18-.46.12-.93.54-1.79,1.22-2.47.81-.81,1.89-1.26,3.04-1.26s2.22.45,3.04,1.26c.68.68,1.1,1.54,1.22,2.47-.11.12-.18.28-.18.46v3.66c0,.17.06.32.16.43-.14.18-.29.35-.45.51-.49.49-1.06.88-1.7,1.15-.3.13-.62.23-.94.3-.09-.09-.22-.14-.36-.14h-.26c-.28,0-.51.22-.52.5,0,0,0,.02,0,.03,0,0,0,0,0,0s0,0,0,0h0c0,.29.23.52.52.52h.26c.25,0,.45-.17.51-.4,1.39-.31,2.59-1.11,3.42-2.22.08,0,.17,0,.25-.04,1.01-.36,1.73-1.33,1.73-2.46,0-1.04-.61-1.95-1.5-2.36Z" style="fill: #40a4ff;"/>
    <rect x="9.96" y="10.94" width="1.31" height="1.04" rx=".52" ry=".52" transform="translate(22.08 .85) rotate(90)" style="fill: #40a4ff;"/>
    <rect x="13.71" y="10.94" width="1.31" height="1.04" rx=".52" ry=".52" transform="translate(25.83 -2.9) rotate(90)" style="fill: #40a4ff;"/>
    <path d="M13.69,12.48h0c-.09-.1-.23-.11-.33-.03-.23.16-.49.24-.76.24-.02,0-.04,0-.06,0-.02,0-.04,0-.06,0-.27,0-.53-.08-.76-.24-.1-.07-.24-.06-.33.03h0c-.11.12-.1.3.03.39.31.22.68.35,1.07.35.02,0,.04,0,.06,0,.02,0,.04,0,.06,0,.39,0,.76-.12,1.07-.35.13-.09.14-.27.03-.38Z" style="fill: #40a4ff;"/>
  </g>
</svg>