<?xml version="1.0" encoding="UTF-8"?>
<svg id="Layer_1" xmlns="http://www.w3.org/2000/svg" xmlns:xlink="http://www.w3.org/1999/xlink" viewBox="0 0 25 35">
  <defs>
    <radialGradient id="radial-gradient" cx="12.5" cy="77.84" fx="12.5" fy="77.84" r="6.17" gradientTransform="translate(-12.35 .9) scale(1.99 .41)" gradientUnits="userSpaceOnUse">
      <stop offset="0" stop-color="#0c0c0d" stop-opacity=".25"/>
      <stop offset="1" stop-color="#fff" stop-opacity="0"/>
    </radialGradient>
    <linearGradient id="linear-gradient" x1="12.5" y1="0" x2="12.5" y2="33" gradientUnits="userSpaceOnUse">
      <stop offset="0" stop-color="#01e9bd"/>
      <stop offset="1" stop-color="#6bb5ff"/>
    </linearGradient>
    <filter id="drop-shadow-1" filterUnits="userSpaceOnUse">
      <feOffset dx="0" dy="1"/>
      <feGaussianBlur result="blur" stdDeviation="4"/>
      <feFlood flood-color="#0c0c0d" flood-opacity=".1"/>
      <feComposite in2="blur" operator="in"/>
      <feComposite in="SourceGraphic"/>
    </filter>
  </defs>
  <ellipse cx="12.5" cy="33" rx="12.5" ry="2" style="fill: url(#radial-gradient);"/>
  <path d="M12.5,0C5.99,0,.71,5.28.71,11.79c0,.87.1,1.71.28,2.52,1.33,6.89,11.51,18.7,11.51,18.7,0,0,10.17-11.8,11.51-18.7.18-.81.28-1.65.28-2.52C24.29,5.28,19.01,0,12.5,0Z" style="fill: url(#linear-gradient); filter: url(#drop-shadow-1);"/>
  <circle cx="12.53" cy="11.36" r="8.49" style="fill: #fff;"/>
  <g>
    <rect x="6.77" y="5.6" width="11.52" height="11.52" rx="1.58" ry="1.58" style="fill: #40a4ff;"/>
    <g>
      <circle cx="12.01" cy="8.67" r="1" style="fill: #fff;"/>
      <path d="M15.72,14.99h-.5l-.6-1.93c-.06-.21-.26-.35-.48-.35h-1.64v-.83h1.49c.28,0,.5-.22.5-.5s-.22-.5-.5-.5h-1.49v-.38c0-.28-.22-.5-.5-.5s-.5.22-.5.5v2.71c0,.28.22.5.5.5h.62c-.22.87-1.01,1.51-1.94,1.51-1.1,0-2-.9-2-2s.9-2,2-2c.28,0,.5-.22.5-.5s-.22-.5-.5-.5c-1.66,0-3.01,1.35-3.01,3.01s1.35,3.01,3.01,3.01c1.49,0,2.73-1.09,2.96-2.51h.14l.6,1.93c.06.21.26.35.48.35h.87c.28,0,.5-.22.5-.5s-.22-.5-.5-.5Z" style="fill: #fff;"/>
    </g>
    <g>
      <g>
        <circle cx="14.57" cy="6.76" r=".26" style="fill: #fff;"/>
        <path d="M14.96,7.11h-.77c-.16,0-.28.13-.28.28v1.13c0,.07.05.12.12.12h0c.07,0,.12-.05.12-.12v-1.01s.02-.05.05-.05c.03,0,.06.02.06.05v1.13h0v1.4c0,.08.06.14.14.14h0c.08,0,.14-.06.14-.14v-1.34s.02-.05.05-.05c.03,0,.06.02.06.05v1.34c0,.08.06.14.14.14h0c.08,0,.14-.06.14-.14v-1.4h0v-1.13s.02-.05.05-.05c.03,0,.06.02.06.05v1.01c0,.07.05.12.12.12h0c.07,0,.12-.05.12-.12v-1.13c0-.16-.13-.28-.28-.28Z" style="fill: #fff;"/>
      </g>
      <g>
        <circle cx="16.54" cy="6.76" r=".26" style="fill: #fff;"/>
        <path d="M17.39,8.42l-.29-1.09c-.03-.11-.12-.18-.22-.2-.02,0-.03,0-.05,0h-.6s-.03,0-.04,0c-.11.02-.2.1-.22.21l-.29,1.09c-.02.06.02.13.08.14.06.02.13-.02.14-.08l.26-.98s0-.01.01-.02l-.22,1.46c0,.06.03.11.08.11h.17v.99c0,.08.06.14.14.14,0,0,0,0,0,0,0,0,0,0,0,0,.08,0,.14-.06.14-.14v-.99h.1v.99c0,.08.06.14.14.14,0,0,0,0,0,0,0,0,0,0,0,0,.08,0,.14-.06.14-.14v-.99h.16c.05,0,.09-.05.08-.11l-.22-1.46s0,.01,0,.02l.26.98c.02.06.08.1.14.08.06-.02.1-.08.08-.14Z" style="fill: #fff;"/>
      </g>
    </g>
  </g>
</svg>