<?xml version="1.0" encoding="UTF-8"?>
<svg id="Layer_1" xmlns="http://www.w3.org/2000/svg" xmlns:xlink="http://www.w3.org/1999/xlink" viewBox="0 0 25 35">
  <defs>
    <radialGradient id="radial-gradient" cx="12.5" cy="77.84" fx="12.5" fy="77.84" r="6.17" gradientTransform="translate(-12.35 .9) scale(1.99 .41)" gradientUnits="userSpaceOnUse">
      <stop offset="0" stop-color="#0c0c0d" stop-opacity=".25"/>
      <stop offset="1" stop-color="#fff" stop-opacity="0"/>
    </radialGradient>
    <linearGradient id="linear-gradient" x1="12.5" y1="0" x2="12.5" y2="33" gradientUnits="userSpaceOnUse">
      <stop offset="0" stop-color="#01e9bd"/>
      <stop offset="1" stop-color="#6bb5ff"/>
    </linearGradient>
    <filter id="drop-shadow-1" filterUnits="userSpaceOnUse">
      <feOffset dx="0" dy="1"/>
      <feGaussianBlur result="blur" stdDeviation="4"/>
      <feFlood flood-color="#0c0c0d" flood-opacity=".1"/>
      <feComposite in2="blur" operator="in"/>
      <feComposite in="SourceGraphic"/>
    </filter>
  </defs>
  <ellipse cx="12.5" cy="33" rx="12.5" ry="2" style="fill: url(#radial-gradient);"/>
  <path d="M12.5,0C5.99,0,.71,5.28.71,11.79c0,.87.1,1.71.28,2.52,1.33,6.89,11.51,18.7,11.51,18.7,0,0,10.17-11.8,11.51-18.7.18-.81.28-1.65.28-2.52C24.29,5.28,19.01,0,12.5,0Z" style="fill: url(#linear-gradient); filter: url(#drop-shadow-1);"/>
  <circle cx="12.5" cy="11.53" r="8.49" style="fill: #fff;"/>
  <g>
    <rect x="6.74" y="5.77" width="11.52" height="11.52" rx="1.57" ry="1.57" style="fill: #40a4ff;"/>
    <path d="M15.9,16.64h-6.8c-.74,0-1.34-.6-1.34-1.34v-5.38c0-.74.6-1.34,1.34-1.34h6.8c.74,0,1.34.6,1.34,1.34v5.38c0,.74-.6,1.34-1.34,1.34ZM9.1,8.92c-.55,0-1,.45-1,1v5.38c0,.55.45,1,1,1h6.8c.55,0,1-.45,1-1v-5.38c0-.55-.45-1-1-1h-6.8Z" style="fill: #fff;"/>
    <polygon points="10.98 6.5 10.19 7.87 11.77 7.87 10.98 6.5" style="fill: #fff;"/>
    <polygon points="14.02 7.87 14.81 6.5 13.23 6.5 14.02 7.87" style="fill: #fff;"/>
    <g>
      <circle cx="12.5" cy="10.08" r=".42" style="fill: #fff;"/>
      <path d="M13.12,10.65h-1.23c-.25,0-.45.2-.45.45v1.81c0,.1.08.19.19.19h0c.1,0,.19-.08.19-.19v-1.62s.03-.08.08-.09c.05,0,.09.03.09.08v1.81h0v2.23c0,.12.1.22.22.22h0c.12,0,.22-.1.22-.22v-2.15s.03-.08.08-.09c.05,0,.09.03.09.08v2.15c0,.12.1.22.22.22h0c.12,0,.22-.1.22-.22v-2.23h0v-1.81s.03-.08.08-.09c.05,0,.09.03.09.08v1.62c0,.1.08.19.19.19h0c.1,0,.19-.08.19-.19v-1.81c0-.25-.2-.45-.45-.45Z" style="fill: #fff;"/>
    </g>
    <g>
      <circle cx="14.97" cy="10.08" r=".42" style="fill: #fff;"/>
      <path d="M15.59,10.65h-1.23c-.25,0-.45.2-.45.45v1.81c0,.1.08.19.19.19h0c.1,0,.19-.08.19-.19v-1.62s.03-.08.08-.09c.05,0,.09.03.09.08v1.81h0v2.23c0,.12.1.22.22.22h0c.12,0,.22-.1.22-.22v-2.15s.03-.08.08-.09c.05,0,.09.03.09.08v2.15c0,.12.1.22.22.22h0c.12,0,.22-.1.22-.22v-2.23h0v-1.81s.03-.08.08-.09c.05,0,.09.03.09.08v1.62c0,.1.08.19.19.19h0c.1,0,.19-.08.19-.19v-1.81c0-.25-.2-.45-.45-.45Z" style="fill: #fff;"/>
    </g>
    <g>
      <circle cx="10.03" cy="10.08" r=".42" style="fill: #fff;"/>
      <path d="M10.64,10.65h-1.23c-.25,0-.45.2-.45.45v1.81c0,.1.08.19.19.19h0c.1,0,.19-.08.19-.19v-1.62s.03-.08.08-.09c.05,0,.09.03.09.08v1.81h0v2.23c0,.12.1.22.22.22h0c.12,0,.22-.1.22-.22v-2.15s.03-.08.08-.09c.05,0,.09.03.09.08v2.15c0,.12.1.22.22.22h0c.12,0,.22-.1.22-.22v-2.23h0v-1.81s.03-.08.08-.09c.05,0,.09.03.09.08v1.62c0,.1.08.19.19.19h0c.1,0,.19-.08.19-.19v-1.81c0-.25-.2-.45-.45-.45Z" style="fill: #fff;"/>
    </g>
  </g>
</svg>