<?xml version="1.0" encoding="UTF-8"?>
<svg id="Layer_1" xmlns="http://www.w3.org/2000/svg" xmlns:xlink="http://www.w3.org/1999/xlink" viewBox="0 0 25 35">
  <defs>
    <radialGradient id="radial-gradient" cx="12.5" cy="77.84" fx="12.5" fy="77.84" r="6.17" gradientTransform="translate(-12.35 .9) scale(1.99 .41)" gradientUnits="userSpaceOnUse">
      <stop offset="0" stop-color="#0c0c0d" stop-opacity=".25"/>
      <stop offset="1" stop-color="#fff" stop-opacity="0"/>
    </radialGradient>
    <linearGradient id="linear-gradient" x1="12.5" y1="0" x2="12.5" y2="33" gradientUnits="userSpaceOnUse">
      <stop offset="0" stop-color="#01e9bd"/>
      <stop offset="1" stop-color="#6bb5ff"/>
    </linearGradient>
    <filter id="drop-shadow-1" filterUnits="userSpaceOnUse">
      <feOffset dx="0" dy="1"/>
      <feGaussianBlur result="blur" stdDeviation="4"/>
      <feFlood flood-color="#0c0c0d" flood-opacity=".1"/>
      <feComposite in2="blur" operator="in"/>
      <feComposite in="SourceGraphic"/>
    </filter>
  </defs>
  <ellipse cx="12.5" cy="33" rx="12.5" ry="2" style="fill: url(#radial-gradient);"/>
  <path d="M12.5,0C5.99,0,.71,5.28.71,11.79c0,.87.1,1.71.28,2.52,1.33,6.89,11.51,18.7,11.51,18.7,0,0,10.17-11.8,11.51-18.7.18-.81.28-1.65.28-2.52C24.29,5.28,19.01,0,12.5,0Z" style="fill: url(#linear-gradient); filter: url(#drop-shadow-1);"/>
  <circle cx="12.53" cy="11.36" r="8.49" style="fill: #fff;"/>
  <g>
    <path d="M11.25,15.29h-1.55s-.09,0-.13-.02v1.05c0,.57.46,1.03,1.03,1.03h3.86c.57,0,1.03-.46,1.03-1.03v-6.44c0-.57-.46-1.03-1.03-1.03h-3.86c-.57,0-1.03.46-1.03,1.03v1.05s.08-.02.13-.02h1.55c.21,0,.39.17.39.39s-.17.39-.39.39h-1.55s-.09,0-.13-.02v1.08s.08-.02.13-.02h2.32c.21,0,.39.17.39.39s-.17.39-.39.39h-2.32s-.09,0-.13-.02v1.08s.08-.02.13-.02h1.55c.21,0,.39.17.39.39s-.17.39-.39.39Z" style="fill: #ff8080;"/>
    <path d="M12.53,4.68c-.21,0-.39.17-.39.39v.44c0,.14-.1.25-.24.26-.72.05-1.3.59-1.41,1.28h4.08c-.12-.69-.7-1.23-1.41-1.28-.13,0-.24-.12-.24-.26v-.44c0-.21-.17-.39-.39-.39Z" style="fill: #ff8080;"/>
    <path d="M9.96,7.56c-.21,0-.39.17-.39.39s.17.39.39.39h5.15c.21,0,.39-.17.39-.39s-.17-.39-.39-.39h-5.15Z" style="fill: #ff8080;"/>
  </g>
</svg>