<?xml version="1.0" encoding="UTF-8"?>
<svg id="Layer_1" xmlns="http://www.w3.org/2000/svg" xmlns:xlink="http://www.w3.org/1999/xlink" viewBox="0 0 25 35">
  <defs>
    <radialGradient id="radial-gradient" cx="12.5" cy="77.84" fx="12.5" fy="77.84" r="6.17" gradientTransform="translate(-12.35 .9) scale(1.99 .41)" gradientUnits="userSpaceOnUse">
      <stop offset="0" stop-color="#0c0c0d" stop-opacity=".25"/>
      <stop offset="1" stop-color="#fff" stop-opacity="0"/>
    </radialGradient>
    <linearGradient id="linear-gradient" x1="12.5" y1="0" x2="12.5" y2="33" gradientUnits="userSpaceOnUse">
      <stop offset="0" stop-color="#01e9bd"/>
      <stop offset="1" stop-color="#6bb5ff"/>
    </linearGradient>
    <filter id="drop-shadow-1" filterUnits="userSpaceOnUse">
      <feOffset dx="0" dy="1"/>
      <feGaussianBlur result="blur" stdDeviation="4"/>
      <feFlood flood-color="#0c0c0d" flood-opacity=".1"/>
      <feComposite in2="blur" operator="in"/>
      <feComposite in="SourceGraphic"/>
    </filter>
  </defs>
  <ellipse cx="12.5" cy="33" rx="12.5" ry="2" style="fill: url(#radial-gradient);"/>
  <path d="M12.5,0C5.99,0,.71,5.28.71,11.79c0,.87.1,1.71.28,2.52,1.33,6.89,11.51,18.7,11.51,18.7,0,0,10.17-11.8,11.51-18.7.18-.81.28-1.65.28-2.52C24.29,5.28,19.01,0,12.5,0Z" style="fill: url(#linear-gradient); filter: url(#drop-shadow-1);"/>
  <circle cx="12.5" cy="11.53" r="8.49" style="fill: #fff;"/>
  <g>
    <rect x="6.74" y="5.77" width="11.52" height="11.52" rx="1.57" ry="1.57" style="fill: #40a4ff;"/>
    <g>
      <circle cx="10.25" cy="7.89" r=".6" style="fill: #fff;"/>
      <path d="M11.13,8.71h-1.77c-.36,0-.65.29-.65.65v2.6c0,.15.12.27.27.27h0c.15,0,.27-.12.27-.27v-2.32c0-.06.05-.12.11-.13.07,0,.13.05.13.12v2.6h0v3.21c0,.17.14.32.32.32h0c.17,0,.32-.14.32-.32v-3.08c0-.06.05-.12.11-.13.07,0,.13.05.13.12v3.09c0,.17.14.32.32.32h0c.17,0,.32-.14.32-.32v-3.21h0v-2.59c0-.06.05-.12.11-.13.07,0,.13.05.13.12v2.33c0,.15.12.27.27.27h0c.15,0,.27-.12.27-.27v-2.6c0-.36-.29-.65-.65-.65Z" style="fill: #fff;"/>
    </g>
    <g>
      <circle cx="14.75" cy="7.89" r=".6" style="fill: #fff;"/>
      <path d="M16.71,11.71l-.67-2.51c-.07-.25-.27-.42-.5-.47-.04,0-.07-.01-.11-.01h-1.37s-.06,0-.09,0c-.24.04-.45.22-.52.47l-.67,2.51c-.04.14.05.29.19.33.14.04.29-.05.33-.19l.6-2.25s.01-.03.02-.04l-.5,3.35c-.02.13.07.25.19.25h.38v2.28c0,.17.14.32.32.32,0,0,0,0,0,0,0,0,0,0,0,0,.17,0,.32-.14.32-.32v-2.28h.24v2.28c0,.17.14.32.32.32,0,0,0,0,0,0,0,0,0,0,0,0,.17,0,.32-.14.32-.32v-2.28h.37c.12,0,.21-.12.19-.25l-.5-3.35s.02.03.02.04l.6,2.25c.04.14.19.23.33.19.14-.04.23-.19.19-.33Z" style="fill: #fff;"/>
    </g>
  </g>
</svg>