<svg width="20" height="20" viewBox="0 0 20 20" fill="none" xmlns="http://www.w3.org/2000/svg">
<path fill-rule="evenodd" clip-rule="evenodd" d="M10.8343 10.3181L12.0229 11.1105L9.90613 14.2857H13.5399L9.62672 19.7039L8.46861 18.8675L10.7459 15.7143H7.23682L10.8343 10.3181Z" fill="url(#paint0_linear_1150_6344)"/>
<path fill-rule="evenodd" clip-rule="evenodd" d="M5.71429 15.475C2.43027 14.6141 0 11.5299 0 7.85714C0 3.51776 3.39249 0 7.57735 0C11.0493 0 13.9758 2.42126 14.8722 5.72419C14.9733 5.71762 15.0753 5.71429 15.1781 5.71429C17.8411 5.71429 20 7.95286 20 10.7143C20 13.4757 17.8411 15.7143 15.1781 15.7143C15.1185 15.7143 15.0591 15.7131 15 15.7109V14.2857H15.2164V14.2855C17.0257 14.264 18.5714 12.7218 18.5714 10.7143C18.5714 8.69257 17.0038 7.14286 15.1781 7.14286C14.6623 7.14286 14.1671 7.26655 13.722 7.48963C13.6993 7.07405 13.6384 6.6691 13.5428 6.27851L13.5406 6.27939C12.8637 3.46431 10.417 1.42857 7.57735 1.42857C4.22985 1.42857 1.42857 4.25747 1.42857 7.85714C1.42857 10.7612 3.25186 13.1637 5.71429 13.9837V15.475Z" fill="url(#paint1_linear_1150_6344)"/>
<defs>
<linearGradient id="paint0_linear_1150_6344" x1="10.3883" y1="10.3181" x2="10.3883" y2="19.7039" gradientUnits="userSpaceOnUse">
<stop stop-color="#F5BD52"/>
<stop offset="1" stop-color="#F5DA79"/>
</linearGradient>
<linearGradient id="paint1_linear_1150_6344" x1="10" y1="0" x2="10" y2="15.7143" gradientUnits="userSpaceOnUse">
<stop stop-color="#95B6F6"/>
<stop offset="1" stop-color="#5193DE"/>
</linearGradient>
</defs>
</svg>
