<svg width="21" height="21" viewBox="0 0 21 21" fill="none" xmlns="http://www.w3.org/2000/svg">
<path fill-rule="evenodd" clip-rule="evenodd" d="M11.3829 0V1.73937H13.3829V0H11.3829ZM20.4999 7.11709H18.7605V9.11709H20.4999V7.11709ZM17.4061 4.06219L18.9124 3.1925L19.9124 4.92455L18.4061 5.79424L17.4061 4.06219ZM15.5754 0.58747L14.7057 2.09381L16.4378 3.09381L17.3074 1.58747L15.5754 0.58747ZM8.32794 3.09381L7.45825 1.58747L9.1903 0.58747L10.06 2.09381L8.32794 3.09381ZM15.7525 8.11698C15.7525 9.00335 15.4144 9.81076 14.8602 10.4173C14.9915 10.4055 15.1245 10.3995 15.2588 10.3995C15.8977 10.3995 16.5047 10.5358 17.0525 10.7808C17.4981 9.99439 17.7525 9.08539 17.7525 8.11698C17.7525 5.12835 15.3297 2.7056 12.3411 2.7056C10.195 2.7056 8.34076 3.95482 7.46579 5.76576L7.47195 5.76576C8.21032 5.76576 8.92077 5.88536 9.58496 6.10625C10.2055 5.25716 11.2089 4.7056 12.3411 4.7056C14.2251 4.7056 15.7525 6.23292 15.7525 8.11698Z" fill="url(#paint0_linear_1150_6346)"/>
<path fill-rule="evenodd" clip-rule="evenodd" d="M7.99998 18L8.02928 17.9999V18.5714H8.14071V18.2857L15.498 18.2857V18L15.4999 18C17.0912 18 18.4999 16.6436 18.4999 14.8214C18.4999 12.9992 17.0912 11.6428 15.4999 11.6428L15.498 11.6428V11.4285H14.0266C13.9657 10.9305 13.8487 10.4505 13.6825 9.99559C13.505 10.0674 13.3324 10.1493 13.1654 10.2408C12.3841 8.00826 10.3283 6.46429 7.99998 6.46429C5.028 6.46429 2.5 8.97991 2.5 12.2321C2.5 15.4844 5.028 18 7.99998 18ZM15.6723 19.9969C18.3539 19.9028 20.4999 17.6217 20.4999 14.8214C20.4999 11.9614 18.2613 9.64284 15.4999 9.64284C15.3583 9.64284 15.218 9.64894 15.0793 9.6609C14.0547 6.63447 11.272 4.46429 7.99998 4.46429C3.85786 4.46429 0.5 7.94207 0.5 12.2321C0.5 16.5222 3.85786 20 7.99998 20C8.047 20 8.09391 19.9995 8.14071 19.9986V20.2857L15.6723 20.2857V19.9969Z" fill="url(#paint1_linear_1150_6346)"/>
<path fill-rule="evenodd" clip-rule="evenodd" d="M11.3829 0V1.73937H13.3829V0H11.3829ZM20.4999 7.11709H18.7605V9.11709H20.4999V7.11709ZM17.4061 4.06219L18.9124 3.1925L19.9124 4.92455L18.4061 5.79424L17.4061 4.06219ZM15.5754 0.58747L14.7057 2.09381L16.4378 3.09381L17.3074 1.58747L15.5754 0.58747ZM8.32794 3.09381L7.45825 1.58747L9.1903 0.58747L10.06 2.09381L8.32794 3.09381ZM15.7525 8.11698C15.7525 9.00335 15.4144 9.81076 14.8602 10.4173C14.9915 10.4055 15.1245 10.3995 15.2588 10.3995C15.8977 10.3995 16.5047 10.5358 17.0525 10.7808C17.4981 9.99439 17.7525 9.08539 17.7525 8.11698C17.7525 5.12835 15.3297 2.7056 12.3411 2.7056C10.195 2.7056 8.34076 3.95482 7.46579 5.76576L7.47195 5.76576C8.21032 5.76576 8.92077 5.88536 9.58496 6.10625C10.2055 5.25716 11.2089 4.7056 12.3411 4.7056C14.2251 4.7056 15.7525 6.23292 15.7525 8.11698Z" fill="url(#paint2_linear_1150_6346)"/>
<path fill-rule="evenodd" clip-rule="evenodd" d="M7.99998 18L8.02928 17.9999V18.5714H8.14071V18.2857L15.498 18.2857V18L15.4999 18C17.0912 18 18.4999 16.6436 18.4999 14.8214C18.4999 12.9992 17.0912 11.6428 15.4999 11.6428L15.498 11.6428V11.4285H14.0266C13.9657 10.9305 13.8487 10.4505 13.6825 9.99559C13.505 10.0674 13.3324 10.1493 13.1654 10.2408C12.3841 8.00826 10.3283 6.46429 7.99998 6.46429C5.028 6.46429 2.5 8.97991 2.5 12.2321C2.5 15.4844 5.028 18 7.99998 18ZM15.6723 19.9969C18.3539 19.9028 20.4999 17.6217 20.4999 14.8214C20.4999 11.9614 18.2613 9.64284 15.4999 9.64284C15.3583 9.64284 15.218 9.64894 15.0793 9.6609C14.0547 6.63447 11.272 4.46429 7.99998 4.46429C3.85786 4.46429 0.5 7.94207 0.5 12.2321C0.5 16.5222 3.85786 20 7.99998 20C8.047 20 8.09391 19.9995 8.14071 19.9986V20.2857L15.6723 20.2857V19.9969Z" fill="url(#paint3_linear_1150_6346)"/>
<defs>
<linearGradient id="paint0_linear_1150_6346" x1="13.9791" y1="0" x2="13.9791" y2="10.7808" gradientUnits="userSpaceOnUse">
<stop stop-color="#EFC977"/>
<stop offset="1" stop-color="#E07256"/>
</linearGradient>
<linearGradient id="paint1_linear_1150_6346" x1="10.5" y1="4.46429" x2="10.5" y2="20.2857" gradientUnits="userSpaceOnUse">
<stop stop-color="#B2D4F7"/>
<stop offset="1" stop-color="#D9E2F3"/>
</linearGradient>
<linearGradient id="paint2_linear_1150_6346" x1="13.9791" y1="0" x2="13.9791" y2="10.7808" gradientUnits="userSpaceOnUse">
<stop stop-color="#EFC977"/>
<stop offset="1" stop-color="#E07256"/>
</linearGradient>
<linearGradient id="paint3_linear_1150_6346" x1="10.5" y1="4.46429" x2="10.5" y2="20.2857" gradientUnits="userSpaceOnUse">
<stop stop-color="#B2D4F7"/>
<stop offset="1" stop-color="#D9E2F3"/>
</linearGradient>
</defs>
</svg>
