<svg width="21" height="20" viewBox="0 0 21 20" fill="none" xmlns="http://www.w3.org/2000/svg">
<path fill-rule="evenodd" clip-rule="evenodd" d="M16.2143 15.6837C18.625 15.4071 20.5 13.2877 20.5 10.7143C20.5 7.95286 18.3411 5.71429 15.6781 5.71429C15.5753 5.71429 15.4733 5.71762 15.3722 5.72419C14.4758 2.42126 11.5493 0 8.07735 0C3.89249 0 0.5 3.51776 0.5 7.85714C0.5 11.5299 2.93027 14.6141 6.21429 15.475V13.9837C3.75186 13.1637 1.92857 10.7612 1.92857 7.85714C1.92857 4.25747 4.72985 1.42857 8.07735 1.42857C10.917 1.42857 13.3637 3.46432 14.0406 6.27939L14.0428 6.27851C14.1384 6.6691 14.1993 7.07405 14.222 7.48963C14.6671 7.26655 15.1623 7.14286 15.6781 7.14286C17.5038 7.14286 19.0714 8.69257 19.0714 10.7143C19.0714 12.5347 17.8003 13.9725 16.2143 14.2407V15.6837ZM8.71576 18.5729C8.88873 18.5729 9.07301 18.4229 9.07294 18.1829C9.0729 18.0515 9.02778 17.8045 8.88824 17.4405C8.8326 17.2955 8.76758 17.1461 8.69599 16.9955C8.48234 17.4598 8.35824 17.8769 8.35834 18.1829C8.35841 18.4229 8.54279 18.5729 8.71576 18.5729ZM7.85166 15.5409C8.28776 14.8073 8.71444 14.2857 8.71444 14.2857C8.71444 14.2857 9.12132 14.8253 9.54679 15.5556C10.0129 16.3555 10.5013 17.3842 10.5015 18.1829C10.5018 19.1873 9.70251 20.0015 8.7162 20.0015C7.72989 20.0015 6.93008 19.1873 6.92977 18.1829C6.9295 17.3064 7.39573 16.3078 7.85166 15.5409ZM13.3587 16.04C13.3587 16.28 13.1744 16.4301 13.0015 16.4301C12.8285 16.4301 12.6441 16.28 12.6441 16.04C12.644 15.7341 12.7681 15.3169 12.9817 14.8527C13.0533 15.0032 13.1183 15.1526 13.1739 15.2977C13.3135 15.6616 13.3586 15.9086 13.3587 16.04ZM13.0002 12.1429C13.0002 12.1429 12.5735 12.6645 12.1374 13.398C11.6814 14.165 11.2152 15.1636 11.2155 16.04C11.2158 17.0444 12.0156 17.8587 13.0019 17.8587C13.9882 17.8587 14.7875 17.0444 14.7872 16.04C14.787 15.2413 14.2986 14.2126 13.8325 13.4127C13.407 12.6825 13.0002 12.1429 13.0002 12.1429Z" fill="url(#paint0_linear_1150_5818)"/>
<defs>
<linearGradient id="paint0_linear_1150_5818" x1="10.5" y1="0" x2="10.5" y2="20.0015" gradientUnits="userSpaceOnUse">
<stop stop-color="#95B6F6"/>
<stop offset="1" stop-color="#5193DE"/>
</linearGradient>
</defs>
</svg>
