<svg width="20" height="20" viewBox="0 0 20 20" fill="none" xmlns="http://www.w3.org/2000/svg">
<path fill-rule="evenodd" clip-rule="evenodd" d="M0 7.85714C0 10.9734 1.74956 13.6659 4.28571 14.9362V13.2859C2.57871 12.1537 1.42857 10.1637 1.42857 7.85714C1.42857 4.25747 4.22985 1.42857 7.57735 1.42857C10.417 1.42857 12.8637 3.46432 13.5406 6.27939L13.5428 6.27851C13.6384 6.6691 13.6993 7.07405 13.722 7.48963C14.1671 7.26655 14.6623 7.14286 15.1781 7.14286C17.0038 7.14286 18.5714 8.69257 18.5714 10.7143C18.5714 11.9361 17.9989 12.9855 17.1429 13.6246V15.2817C18.8266 14.5018 20 12.7501 20 10.7143C20 7.95286 17.8411 5.71429 15.1781 5.71429C15.0753 5.71429 14.9733 5.71762 14.8722 5.72419C13.9758 2.42126 11.0493 0 7.57735 0C3.39249 0 0 3.51776 0 7.85714ZM11.9421 13.0019C12.0919 13.0884 12.3265 13.0506 12.4465 12.8427C12.5122 12.7289 12.5967 12.4925 12.6578 12.1075C12.6822 11.9541 12.7006 11.7922 12.7139 11.626C12.2967 11.9212 11.9806 12.2203 11.8277 12.4853C11.7077 12.6932 11.7923 12.9154 11.9421 13.0019ZM12.7103 9.94409C13.4548 9.52696 14.0852 9.28868 14.0852 9.28868C14.0852 9.28868 14.1676 9.95944 14.1708 10.8046C14.1744 11.7304 14.0828 12.8655 13.6836 13.5572C13.1815 14.4271 12.0821 14.7324 11.228 14.2391C10.3739 13.7459 10.0886 12.6408 10.5906 11.7709C11.0287 11.0117 11.9319 10.3802 12.7103 9.94409ZM7.2258 13.7288C7.37558 13.8153 7.61021 13.7775 7.73018 13.5697C7.79588 13.4558 7.88034 13.2194 7.9415 12.8344C7.96589 12.681 7.98428 12.5191 7.99759 12.3529C7.5804 12.6481 7.26432 12.9473 7.11137 13.2123C6.9914 13.4201 7.07602 13.6423 7.2258 13.7288ZM7.99397 10.671C8.73849 10.2539 9.36885 10.0156 9.36885 10.0156C9.36885 10.0156 9.45131 10.6864 9.45453 11.5315C9.45805 12.4573 9.36649 13.5924 8.96725 14.2841C8.46518 15.154 7.3658 15.4594 6.5117 14.9661C5.65761 14.4728 5.37224 13.3677 5.8743 12.4978C6.31242 11.7387 7.21559 11.1071 7.99397 10.671ZM14.0566 17.2235C13.9367 17.4313 13.702 17.4691 13.5523 17.3826C13.4025 17.2961 13.3179 17.0739 13.4378 16.8661C13.5908 16.6011 13.9069 16.3019 14.3241 16.0068C14.3108 16.1729 14.2924 16.3348 14.268 16.4883C14.2068 16.8732 14.1224 17.1096 14.0566 17.2235ZM15.6953 13.6694C15.6953 13.6694 15.065 13.9077 14.3204 14.3248C13.5421 14.7609 12.6389 15.3925 12.2008 16.1516C11.6987 17.0215 11.9841 18.1266 12.8382 18.6199C13.6923 19.1132 14.7917 18.8079 15.2937 17.9379C15.693 17.2462 15.7845 16.1111 15.781 15.1853C15.7778 14.3402 15.6953 13.6694 15.6953 13.6694ZM8.75347 18.5268C8.90325 18.6133 9.13787 18.5755 9.25785 18.3677C9.32355 18.2538 9.408 18.0174 9.46917 17.6325C9.49356 17.479 9.51195 17.3171 9.52526 17.151C9.10807 17.4461 8.79199 17.7453 8.63904 18.0103C8.51906 18.2181 8.60369 18.4403 8.75347 18.5268ZM9.52163 15.469C10.2662 15.0519 10.8965 14.8136 10.8965 14.8136C10.8965 14.8136 10.979 15.4844 10.9822 16.3295C10.9857 17.2553 10.8942 18.3904 10.4949 19.0821C9.99285 19.9521 8.89346 20.2574 8.03937 19.7641C7.18528 19.2708 6.8999 18.1657 7.40197 17.2958C7.84009 16.5367 8.74325 15.9051 9.52163 15.469Z" fill="url(#paint0_linear_1150_5959)"/>
<defs>
<linearGradient id="paint0_linear_1150_5959" x1="10" y1="0" x2="10" y2="20" gradientUnits="userSpaceOnUse">
<stop stop-color="#95B6F6"/>
<stop offset="1" stop-color="#5193DE"/>
</linearGradient>
</defs>
</svg>
