<svg width="20" height="20" viewBox="0 0 20 20" fill="none" xmlns="http://www.w3.org/2000/svg">
<path fill-rule="evenodd" clip-rule="evenodd" d="M11.4286 9.28569L10.8976 9.65744L11.0102 10.2958L10.3718 10.1832L10.0001 10.7143L9.62832 10.1832L8.98992 10.2958L9.10259 9.65744L8.5715 9.28569L9.10259 8.91394L8.98992 8.27554L9.62832 8.38821L10.0001 7.85712L10.3718 8.38821L11.0102 8.27554L10.8976 8.91394L11.4286 9.28569ZM8.04041 11.8003L8.5715 11.4285L8.04041 11.0568L8.15308 10.4184L7.51468 10.5311L7.14293 9.99997L6.77118 10.5311L6.13277 10.4184L6.24544 11.0568L5.71436 11.4285L6.24544 11.8003L6.13277 12.4387L6.77118 12.326L7.14293 12.8571L7.51468 12.326L8.15308 12.4387L8.04041 11.8003ZM10.8976 13.9432L11.4286 13.5714L10.8976 13.1997L11.0102 12.5612L10.3718 12.6739L10.0001 12.1428L9.62832 12.6739L8.98992 12.5612L9.10259 13.1997L8.5715 13.5714L9.10259 13.9432L8.98992 14.5816L9.62832 14.4689L10.0001 15L10.3718 14.4689L11.0102 14.5816L10.8976 13.9432ZM13.7547 11.8003L14.2858 11.4285L13.7547 11.0568L13.8674 10.4184L13.229 10.5311L12.8572 9.99997L12.4855 10.5311L11.8471 10.4184L11.9597 11.0568L11.4286 11.4285L11.9597 11.8003L11.8471 12.4387L12.4855 12.326L12.8572 12.8571L13.229 12.326L13.8674 12.4387L13.7547 11.8003Z" fill="url(#paint0_linear_1150_6343)"/>
<path fill-rule="evenodd" clip-rule="evenodd" d="M5 15.2481C2.08394 14.1545 0 11.2582 0 7.85714C0 3.51776 3.39249 0 7.57735 0C11.0493 0 13.9758 2.42126 14.8722 5.72419C14.9733 5.71762 15.0753 5.71429 15.1781 5.71429C17.8411 5.71429 20 7.95286 20 10.7143C20 13.2878 18.125 15.4071 15.7143 15.6837V14.2407C17.3003 13.9725 18.5714 12.5347 18.5714 10.7143C18.5714 8.69257 17.0038 7.14286 15.1781 7.14286C14.6623 7.14286 14.1671 7.26655 13.722 7.48963C13.6993 7.07405 13.6384 6.6691 13.5428 6.27851L13.5406 6.27939C12.8637 3.46432 10.417 1.42857 7.57735 1.42857C4.22985 1.42857 1.42857 4.25747 1.42857 7.85714C1.42857 10.4725 2.90736 12.681 5 13.6933V15.2481Z" fill="url(#paint1_linear_1150_6343)"/>
<path fill-rule="evenodd" clip-rule="evenodd" d="M7.50154 18.5729C7.67451 18.5729 7.8588 18.4229 7.85872 18.1829C7.85868 18.0514 7.81357 17.8045 7.67402 17.4405C7.61838 17.2955 7.55336 17.1461 7.48177 16.9955C7.26813 17.4598 7.14403 17.8769 7.14412 18.1829C7.1442 18.4229 7.32858 18.5729 7.50154 18.5729ZM6.63744 15.5409C7.07355 14.8073 7.50023 14.2857 7.50023 14.2857C7.50023 14.2857 7.90711 14.8253 8.33257 15.5555C8.79866 16.3555 9.28705 17.3842 9.2873 18.1829C9.2876 19.1873 8.48829 20.0015 7.50198 20.0015C6.51567 20.0015 5.71586 19.1873 5.71555 18.1829C5.71528 17.3064 6.18151 16.3078 6.63744 15.5409Z" fill="url(#paint2_linear_1150_6343)"/>
<path fill-rule="evenodd" clip-rule="evenodd" d="M12.5015 18.5729C12.6745 18.5729 12.8588 18.4229 12.8587 18.1829C12.8587 18.0514 12.8136 17.8045 12.674 17.4405C12.6184 17.2955 12.5534 17.1461 12.4818 16.9955C12.2681 17.4598 12.144 17.8769 12.1441 18.1829C12.1442 18.4229 12.3286 18.5729 12.5015 18.5729ZM11.6374 15.5409C12.0735 14.8073 12.5002 14.2857 12.5002 14.2857C12.5002 14.2857 12.9071 14.8253 13.3326 15.5555C13.7987 16.3555 14.2871 17.3842 14.2873 18.1829C14.2876 19.1873 13.4883 20.0015 12.502 20.0015C11.5157 20.0015 10.7159 19.1873 10.7156 18.1829C10.7153 17.3064 11.1815 16.3078 11.6374 15.5409Z" fill="url(#paint3_linear_1150_6343)"/>
<defs>
<linearGradient id="paint0_linear_1150_6343" x1="10.0001" y1="7.85712" x2="10.0001" y2="15" gradientUnits="userSpaceOnUse">
<stop stop-color="#B2D4F7"/>
<stop offset="1" stop-color="#D9E2F3"/>
</linearGradient>
<linearGradient id="paint1_linear_1150_6343" x1="10" y1="0" x2="10" y2="15.6837" gradientUnits="userSpaceOnUse">
<stop stop-color="#B2D4F7"/>
<stop offset="1" stop-color="#D9E2F3"/>
</linearGradient>
<linearGradient id="paint2_linear_1150_6343" x1="7.50023" y1="14.2857" x2="7.50023" y2="20.0015" gradientUnits="userSpaceOnUse">
<stop stop-color="#95B6F6"/>
<stop offset="1" stop-color="#5193DE"/>
</linearGradient>
<linearGradient id="paint3_linear_1150_6343" x1="12.5002" y1="14.2857" x2="12.5002" y2="20.0015" gradientUnits="userSpaceOnUse">
<stop stop-color="#95B6F6"/>
<stop offset="1" stop-color="#5193DE"/>
</linearGradient>
</defs>
</svg>
