<svg width="20" height="18" viewBox="0 0 20 18" fill="none" xmlns="http://www.w3.org/2000/svg">
<path fill-rule="evenodd" clip-rule="evenodd" d="M15.8481 5.20686L15.8485 5.20666C16.0702 5.08152 16.3176 5.00889 16.5718 4.99436L16.5718 4.99436C16.8261 4.97983 17.0803 5.02385 17.315 5.12303L17.3153 5.12317C17.5499 5.2224 17.7586 5.37412 17.9253 5.56668L17.9256 5.56705C18.0924 5.75971 18.2127 5.98809 18.2774 6.23459L18.2774 6.23482C18.3421 6.48141 18.3493 6.73955 18.2984 6.98935L18.2984 6.98954C18.2476 7.23928 18.1401 7.47402 17.9844 7.67568L17.9841 7.67606C17.8283 7.87761 17.6283 8.04072 17.3997 8.15285L17.3993 8.15302C17.1713 8.26477 16.9207 8.32286 16.6668 8.32286V8.1581H0.000101686V10.1581H16.6668V9.99158C17.1753 9.99158 17.6772 9.87517 18.1339 9.65124L18.1343 9.65106C18.3208 9.55959 18.4977 9.45117 18.663 9.32751C18.9036 9.14754 19.1195 8.9353 19.3044 8.69601L19.3047 8.69563C19.6165 8.2919 19.8315 7.82199 19.9332 7.32207L19.9332 7.32188C20.0349 6.82194 20.0205 6.30534 19.8912 5.81183L19.8911 5.8116C19.7618 5.31812 19.5209 4.86091 19.1872 4.47517L19.1869 4.4748C18.853 4.08907 18.4351 3.78513 17.9654 3.58637L17.965 3.58623C17.6865 3.46843 17.3942 3.38946 17.0962 3.35073C16.8915 3.32412 16.684 3.31651 16.4766 3.32837L16.4765 3.32837C15.9677 3.35747 15.4724 3.50288 15.0285 3.75342L15.0272 3.75418L15.8477 5.20697L15.8477 5.20707L15.8481 5.20686ZM11.0392 17.4813L0 13.554V11.4983L12.1032 11.4984L12.1032 11.6676C12.5314 11.6703 12.9537 11.7672 13.3401 11.9516L13.3401 11.9516C13.619 12.0846 13.8742 12.2608 14.0967 12.473C14.183 12.5553 14.2644 12.6431 14.3404 12.7358L14.3405 12.736C14.6121 13.0678 14.8073 13.4554 14.912 13.8712L14.9121 13.8715C15.0168 14.2873 15.0286 14.7211 14.9465 15.142L14.9465 15.1421C14.8644 15.563 14.6906 15.9606 14.4373 16.3066L14.4373 16.3067C14.184 16.6527 13.8576 16.9385 13.4813 17.1439L13.481 17.144C13.3758 17.2014 13.2675 17.2521 13.1566 17.296C12.8707 17.409 12.5681 17.4763 12.2597 17.4948L12.2595 17.4949C11.8633 17.5186 11.4669 17.4612 11.0943 17.3265L11.0392 17.4813ZM5.81173 13.4985L11.7094 15.5967L11.653 15.7555C11.8147 15.8151 11.9871 15.8407 12.1594 15.8304L12.1597 15.8304C12.3429 15.8194 12.5214 15.7682 12.6825 15.6803L12.6828 15.6802C12.844 15.5922 12.9837 15.4698 13.0922 15.3217L13.0923 15.3216C13.2008 15.1734 13.2752 15.0031 13.3104 14.8228L13.3104 14.8227C13.3455 14.6425 13.3405 14.4567 13.2956 14.2786L13.2955 14.2783C13.2506 14.1004 13.1671 13.9345 13.0508 13.7925L13.0506 13.7923C12.9343 13.6503 12.7881 13.5357 12.6225 13.4566L12.6225 13.4566C12.4602 13.3792 12.2831 13.3378 12.1035 13.3351L12.1035 13.4985L5.81173 13.4985Z" fill="url(#paint0_linear_1150_6345)"/>
<path fill-rule="evenodd" clip-rule="evenodd" d="M5.83333 1.66667L5.21373 2.10037L5.34518 2.84518L4.60037 2.71373L4.16667 3.33333L3.73296 2.71373L2.98816 2.84518L3.1196 2.10037L2.5 1.66667L3.1196 1.23296L2.98816 0.488155L3.73296 0.619603L4.16667 0L4.60037 0.619603L5.34518 0.488155L5.21373 1.23296L5.83333 1.66667ZM8.47636 5L7.85676 5.43371L7.9882 6.17851L7.2434 6.04706L6.80969 6.66667L6.37598 6.04706L5.63118 6.17851L5.76263 5.43371L5.14303 5L5.76263 4.56629L5.63118 3.82149L6.37598 3.95294L6.80969 3.33333L7.2434 3.95294L7.9882 3.82149L7.85676 4.56629L8.47636 5ZM12.8568 5.43371L13.4764 5L12.8568 4.56629L12.9882 3.82149L12.2434 3.95294L11.8097 3.33333L11.376 3.95294L10.6312 3.82149L10.7626 4.56629L10.143 5L10.7626 5.43371L10.6312 6.17851L11.376 6.04706L11.8097 6.66667L12.2434 6.04706L12.9882 6.17851L12.8568 5.43371ZM10.8333 1.66667L10.2137 2.10037L10.3452 2.84518L9.60037 2.71373L9.16667 3.33333L8.73296 2.71373L7.98815 2.84518L8.1196 2.10037L7.5 1.66667L8.1196 1.23296L7.98815 0.488155L8.73296 0.619603L9.16667 0L9.60037 0.619603L10.3452 0.488155L10.2137 1.23296L10.8333 1.66667ZM2.71373 5.43371L3.33333 5L2.71373 4.56629L2.84518 3.82149L2.10037 3.95294L1.66667 3.33333L1.23296 3.95294L0.488155 3.82149L0.619603 4.56629L0 5L0.619603 5.43371L0.488155 6.17851L1.23296 6.04706L1.66667 6.66667L2.10037 6.04706L2.84518 6.17851L2.71373 5.43371Z" fill="url(#paint1_linear_1150_6345)"/>
<path fill-rule="evenodd" clip-rule="evenodd" d="M15.8484 5.20666L15.8476 5.20707L15.028 3.75586L15.0271 3.75418L15.0287 3.75326C15.4725 3.50281 15.9678 3.35745 16.4765 3.32837C16.5503 3.32415 16.624 3.3224 16.6977 3.32308C17.1325 3.32713 17.5631 3.41626 17.9649 3.58623C18.4348 3.78499 18.8528 4.08898 19.1867 4.4748C19.5207 4.86062 19.7616 5.31796 19.891 5.8116C20.0204 6.30524 20.0348 6.822 19.9331 7.32207C19.8313 7.82215 19.6162 8.2922 19.3043 8.69601C19.0376 9.04128 18.7061 9.33026 18.3293 9.54719C18.2654 9.58397 18.2002 9.61868 18.1338 9.65124C17.6757 9.87585 17.1722 9.99229 16.662 9.99157V9.99144H0V8.32477H16.6643L16.6643 8.32286C16.9192 8.32322 17.1707 8.26506 17.3996 8.15285C17.6284 8.04065 17.8284 7.8774 17.9842 7.67568C18.1401 7.47397 18.2475 7.23916 18.2983 6.98936C18.3492 6.73955 18.342 6.48141 18.2773 6.23482C18.2127 5.98823 18.0923 5.75977 17.9255 5.56705C17.7587 5.37432 17.5499 5.22246 17.3152 5.12317C17.0805 5.02389 16.8261 4.97982 16.5717 4.99436C16.3175 5.00889 16.0701 5.08152 15.8484 5.20666ZM11.0048 17.2922L0 13.3771V11.665L12.1032 11.6651V11.6675C12.5313 11.6702 12.9536 11.7672 13.34 11.9516C13.4888 12.0226 13.6309 12.1058 13.7648 12.2003C13.9793 12.3516 14.173 12.5315 14.3403 12.7358C14.612 13.0676 14.8072 13.4552 14.912 13.8712C15.0167 14.2871 15.0285 14.721 14.9464 15.1419C14.8644 15.5629 14.6905 15.9606 14.4372 16.3067C14.1838 16.6527 13.8573 16.9386 13.4809 17.144C13.2492 17.2704 13.0021 17.3644 12.7466 17.424C12.5869 17.4612 12.424 17.485 12.2594 17.4948C11.8314 17.5205 11.403 17.4514 11.0047 17.2925L11.0048 17.2922ZM4.84592 13.3318L12.0919 13.3319L12.0919 13.3347L12.0919 13.335L12.0927 13.335C12.276 13.3361 12.4569 13.3776 12.6224 13.4566C12.7881 13.5357 12.9344 13.6503 13.0507 13.7924C13.1671 13.9345 13.2506 14.1005 13.2955 14.2786C13.3404 14.4567 13.3454 14.6425 13.3103 14.8228C13.2751 15.0031 13.2007 15.1734 13.0922 15.3216C12.9837 15.4697 12.8439 15.5922 12.6827 15.6801C12.5215 15.7681 12.3429 15.8194 12.1596 15.8304C11.9872 15.8407 11.8147 15.8151 11.6529 15.7554L11.6535 15.7537L4.84592 13.3318Z" fill="url(#paint2_linear_1150_6345)"/>
<path fill-rule="evenodd" clip-rule="evenodd" d="M5.83333 1.66667L5.21373 2.10037L5.34518 2.84518L4.60037 2.71373L4.16667 3.33333L3.73296 2.71373L2.98816 2.84518L3.1196 2.10037L2.5 1.66667L3.1196 1.23296L2.98816 0.488155L3.73296 0.619603L4.16667 0L4.60037 0.619603L5.34518 0.488155L5.21373 1.23296L5.83333 1.66667ZM8.47636 5L7.85676 5.43371L7.9882 6.17851L7.2434 6.04706L6.80969 6.66667L6.37598 6.04706L5.63118 6.17851L5.76263 5.43371L5.14303 5L5.76263 4.56629L5.63118 3.82149L6.37598 3.95294L6.80969 3.33333L7.2434 3.95294L7.9882 3.82149L7.85676 4.56629L8.47636 5ZM12.8568 5.43371L13.4764 5L12.8568 4.56629L12.9882 3.82149L12.2434 3.95294L11.8097 3.33333L11.376 3.95294L10.6312 3.82149L10.7626 4.56629L10.143 5L10.7626 5.43371L10.6312 6.17851L11.376 6.04706L11.8097 6.66667L12.2434 6.04706L12.9882 6.17851L12.8568 5.43371ZM10.8333 1.66667L10.2137 2.10037L10.3452 2.84518L9.60038 2.71373L9.16667 3.33333L8.73296 2.71373L7.98816 2.84518L8.1196 2.10037L7.5 1.66667L8.1196 1.23296L7.98816 0.488155L8.73296 0.619603L9.16667 0L9.60038 0.619603L10.3452 0.488155L10.2137 1.23296L10.8333 1.66667ZM2.71373 5.43371L3.33333 5L2.71373 4.56629L2.84518 3.82149L2.10037 3.95294L1.66667 3.33333L1.23296 3.95294L0.488155 3.82149L0.619603 4.56629L0 5L0.619603 5.43371L0.488155 6.17851L1.23296 6.04706L1.66667 6.66667L2.10037 6.04706L2.84518 6.17851L2.71373 5.43371Z" fill="url(#paint3_linear_1150_6345)"/>
<defs>
<linearGradient id="paint0_linear_1150_6345" x1="10" y1="3.32294" x2="10" y2="17.5001" gradientUnits="userSpaceOnUse">
<stop stop-color="#CED3EA"/>
<stop offset="1" stop-color="#7E83A9"/>
</linearGradient>
<linearGradient id="paint1_linear_1150_6345" x1="6.73818" y1="0" x2="6.73818" y2="6.66667" gradientUnits="userSpaceOnUse">
<stop stop-color="#B2D4F7"/>
<stop offset="1" stop-color="#D9E2F3"/>
</linearGradient>
<linearGradient id="paint2_linear_1150_6345" x1="10" y1="3.32294" x2="10" y2="17.5001" gradientUnits="userSpaceOnUse">
<stop stop-color="#CED3EA"/>
<stop offset="1" stop-color="#7E83A9"/>
</linearGradient>
<linearGradient id="paint3_linear_1150_6345" x1="6.73818" y1="0" x2="6.73818" y2="6.66667" gradientUnits="userSpaceOnUse">
<stop stop-color="#B2D4F7"/>
<stop offset="1" stop-color="#D9E2F3"/>
</linearGradient>
</defs>
</svg>
