<svg width="20" height="20" viewBox="0 0 20 20" fill="none" xmlns="http://www.w3.org/2000/svg">
<path fill-rule="evenodd" clip-rule="evenodd" d="M6.80839 4.32568C7.06125 4.29925 7.31777 4.28571 7.57735 4.28571C11.0493 4.28571 13.9758 6.70697 14.8722 10.0099C14.9439 10.0052 15.0161 10.0022 15.0886 10.0008C15.0592 10.0003 15.0296 10.0001 15 10.0001L14.976 10.0001L14.976 10H16.0714H16.1144V9.99964C17.4753 9.97668 18.5714 8.86634 18.5714 7.5C18.5714 6.11929 17.4521 5 16.0714 5C15.6078 5 15.1737 5.12618 14.8015 5.34607C14.8004 4.94698 14.7398 4.56188 14.6281 4.19918C14.0715 2.58676 12.5405 1.42857 10.7389 1.42857C8.8906 1.42857 7.32701 2.64768 6.80839 4.32568ZM17.9833 10.9328C19.2044 11.8399 20 13.3236 20 15C20 17.7614 17.8411 20 15.1781 20C15.1185 20 15.0591 19.9989 15 19.9966V20H7.6908V19.9991C7.65305 19.9997 7.61523 20 7.57735 20C3.39249 20 0 16.4822 0 12.1429C0 8.63881 2.2121 5.6705 5.26723 4.65755C5.69065 2.01719 7.97922 0 10.7389 0C13.1067 0 15.1276 1.48489 15.9213 3.57424C15.9711 3.57237 16.0212 3.57143 16.0714 3.57143C18.2411 3.57143 20 5.33031 20 7.5C20 8.97564 19.1864 10.2613 17.9833 10.9328ZM15 18.5714H7.6908H7.60859V18.5713L7.57735 18.5714C4.22985 18.5714 1.42857 15.7425 1.42857 12.1429C1.42857 8.54319 4.22985 5.71429 7.57735 5.71429C10.417 5.71429 12.8637 7.75003 13.5406 10.5651L13.5428 10.5642C13.6384 10.9548 13.6993 11.3598 13.722 11.7753C14.1671 11.5523 14.6623 11.4286 15.1781 11.4286C17.0038 11.4286 18.5714 12.9783 18.5714 15C18.5714 17.0075 17.0257 18.5497 15.2164 18.5712V18.5714H15Z" fill="url(#paint0_linear_1150_6143)"/>
<defs>
<linearGradient id="paint0_linear_1150_6143" x1="10" y1="0" x2="10" y2="20" gradientUnits="userSpaceOnUse">
<stop stop-color="#B2D4F7"/>
<stop offset="1" stop-color="#D9E2F3"/>
</linearGradient>
</defs>
</svg>
