<svg width="20" height="20" viewBox="0 0 20 20" fill="none" xmlns="http://www.w3.org/2000/svg">
<path fill-rule="evenodd" clip-rule="evenodd" d="M0 7.85714C0 10.6714 1.4269 13.1401 3.57143 14.5277V12.7332C2.26564 11.5623 1.42857 9.82487 1.42857 7.85714C1.42857 4.25747 4.22985 1.42857 7.57735 1.42857C10.417 1.42857 12.8637 3.46432 13.5406 6.27939L13.5428 6.27851C13.6384 6.6691 13.6993 7.07405 13.722 7.48963C14.1671 7.26655 14.6623 7.14286 15.1781 7.14286C17.0038 7.14286 18.5714 8.69257 18.5714 10.7143C18.5714 12.2513 17.6653 13.5155 16.4286 14.0333V15.5445C18.4854 14.9734 20 13.0272 20 10.7143C20 7.95286 17.8411 5.71429 15.1781 5.71429C15.0753 5.71429 14.9733 5.71762 14.8722 5.72419C13.9758 2.42126 11.0493 0 7.57735 0C3.39249 0 0 3.51776 0 7.85714ZM10.8975 16.086L11.4286 15.7143L10.8975 15.3425L11.0102 14.7041L10.3717 14.8168L10 14.2857L9.62825 14.8168L8.98985 14.7041L9.10252 15.3425L8.57143 15.7143L9.10252 16.086L8.98985 16.7244L9.62825 16.6118L10 17.1429L10.3717 16.6118L11.0102 16.7244L10.8975 16.086ZM9.16316 12.8571L8.63208 13.2289L8.74474 13.8673L8.10634 13.7546L7.73459 14.2857L7.36284 13.7546L6.72444 13.8673L6.83711 13.2289L6.30602 12.8571L6.83711 12.4854L6.72444 11.847L7.36284 11.9597L7.73459 11.4286L8.10634 11.9597L8.74474 11.847L8.63208 12.4854L9.16316 12.8571ZM8.63208 18.9432L9.16316 18.5714L8.63208 18.1997L8.74474 17.5613L8.10634 17.6739L7.73459 17.1429L7.36284 17.6739L6.72444 17.5613L6.83711 18.1997L6.30602 18.5714L6.83711 18.9432L6.72444 19.5816L7.36284 19.4689L7.73459 20L8.10634 19.4689L8.74474 19.5816L8.63208 18.9432ZM15.7143 15.7143L15.1832 16.086L15.2959 16.7244L14.6575 16.6118L14.2857 17.1429L13.914 16.6118L13.2756 16.7244L13.3882 16.086L12.8571 15.7143L13.3882 15.3425L13.2756 14.7041L13.914 14.8168L14.2857 14.2857L14.6575 14.8168L15.2959 14.7041L15.1832 15.3425L15.7143 15.7143ZM12.9178 13.2289L13.4489 12.8571L12.9178 12.4854L13.0305 11.847L12.3921 11.9597L12.0203 11.4286L11.6486 11.9597L11.0102 11.847L11.1228 12.4854L10.5917 12.8571L11.1228 13.2289L11.0102 13.8673L11.6486 13.7546L12.0203 14.2857L12.3921 13.7546L13.0305 13.8673L12.9178 13.2289ZM13.4489 18.5714L12.9178 18.9432L13.0305 19.5816L12.3921 19.4689L12.0203 20L11.6486 19.4689L11.0102 19.5816L11.1228 18.9432L10.5917 18.5714L11.1228 18.1997L11.0102 17.5613L11.6486 17.6739L12.0203 17.1429L12.3921 17.6739L13.0305 17.5613L12.9178 18.1997L13.4489 18.5714ZM6.48922 16.086L7.02031 15.7143L6.48922 15.3425L6.60189 14.7041L5.96349 14.8168L5.59174 14.2857L5.21999 14.8168L4.58158 14.7041L4.69425 15.3425L4.16316 15.7143L4.69425 16.086L4.58158 16.7244L5.21999 16.6118L5.59174 17.1429L5.96349 16.6118L6.60189 16.7244L6.48922 16.086Z" fill="url(#paint0_linear_1150_5858)"/>
<defs>
<linearGradient id="paint0_linear_1150_5858" x1="10" y1="0" x2="10" y2="20" gradientUnits="userSpaceOnUse">
<stop stop-color="#B2D4F7"/>
<stop offset="1" stop-color="#D9E2F3"/>
</linearGradient>
</defs>
</svg>
