<svg width="20" height="20" viewBox="0 0 20 20" fill="none" xmlns="http://www.w3.org/2000/svg">
<path fill-rule="evenodd" clip-rule="evenodd" d="M9.28571 2.14286V0H10.7143V2.14286H9.28571ZM13.31 2.83843L14.3815 0.982666L15.6186 1.69695L14.5472 3.55272L13.31 2.83843ZM10 15C12.7614 15 15 12.7614 15 10C15 7.23858 12.7614 5 10 5C7.23858 5 5 7.23858 5 10C5 12.7614 7.23858 15 10 15ZM10 16.4286C13.5504 16.4286 16.4286 13.5504 16.4286 10C16.4286 6.4496 13.5504 3.57143 10 3.57143C6.4496 3.57143 3.57143 6.4496 3.57143 10C3.57143 13.5504 6.4496 16.4286 10 16.4286ZM17.8571 9.28571H20V10.7143H17.8571V9.28571ZM18.3031 4.38141L16.4473 5.45284L17.1616 6.69002L19.0174 5.61859L18.3031 4.38141ZM4.38141 1.69695L5.45284 3.55272L6.69002 2.83843L5.61859 0.982666L4.38141 1.69695ZM2.83839 6.69002L0.982623 5.61859L1.69691 4.38141L3.55268 5.45284L2.83839 6.69002ZM9.28571 17.8571V20H10.7143V17.8571H9.28571ZM2.14286 9.28571H0V10.7143H2.14286V9.28571ZM0.982584 14.3814L2.83835 13.31L3.55264 14.5472L1.69687 15.6186L0.982584 14.3814ZM5.45288 16.4474L4.38145 18.3032L5.61863 19.0175L6.69006 17.1617L5.45288 16.4474ZM14.3814 19.0175L13.31 17.1617L14.5472 16.4474L15.6186 18.3032L14.3814 19.0175ZM16.4474 14.5472L18.3031 15.6186L19.0174 14.3814L17.1616 13.31L16.4474 14.5472Z" fill="url(#paint0_linear_1150_6238)"/>
<defs>
<linearGradient id="paint0_linear_1150_6238" x1="10" y1="0" x2="10" y2="20" gradientUnits="userSpaceOnUse">
<stop stop-color="#EFC977"/>
<stop offset="1" stop-color="#E07256"/>
</linearGradient>
</defs>
</svg>
