<svg width="13" height="11" viewBox="0 0 13 11" fill="none" xmlns="http://www.w3.org/2000/svg">
<path d="M6.99364 0.284984L12.4236 9.69029C12.4737 9.77694 12.5 9.87524 12.5 9.9753C12.5 10.0754 12.4737 10.1736 12.4236 10.2603C12.3736 10.347 12.3017 10.4189 12.215 10.4689C12.1284 10.519 12.0301 10.5453 11.93 10.5453H1.07C0.969946 10.5453 0.871652 10.519 0.785 10.4689C0.698348 10.4189 0.626392 10.347 0.576364 10.2603C0.526337 10.1736 0.499999 10.0754 0.5 9.9753C0.500001 9.87524 0.526339 9.77694 0.576368 9.69029L6.00636 0.284984C6.0564 0.198337 6.12835 0.126386 6.215 0.0763606C6.30165 0.0263357 6.39995 0 6.5 0C6.60005 0 6.69835 0.0263357 6.785 0.0763606C6.87165 0.126386 6.9436 0.198337 6.99364 0.284984ZM2.05728 9.40528H10.9427L6.5 1.71003L2.05728 9.40528ZM5.92998 7.69523H7.07002V8.83526H5.92998V7.69523ZM5.92998 3.7051H7.07002V6.55519H5.92998V3.7051Z" fill="white"/>
</svg>
