<svg width="21" height="16" viewBox="0 0 21 16" fill="none" xmlns="http://www.w3.org/2000/svg">
<path fill-rule="evenodd" clip-rule="evenodd" d="M8.83345 3.32864L8.83345 3.32373L4.11616 3.32368L8.64112 1.68861L8.64063 1.68726C8.72729 1.66541 8.81696 1.65764 8.90621 1.6643C8.91799 1.66517 8.92975 1.6663 8.9415 1.66768L8.94168 1.66771C9.06422 1.68214 9.18204 1.72362 9.2866 1.78916L9.28661 1.78917C9.39118 1.8547 9.47988 1.94266 9.54631 2.04667L9.54642 2.04684C9.61282 2.15085 9.6553 2.26833 9.67078 2.39076L9.67081 2.391C9.68627 2.51349 9.67432 2.63789 9.63583 2.75519L9.6358 2.75529C9.5973 2.87262 9.5332 2.97993 9.44815 3.06944L9.44807 3.06953C9.36304 3.159 9.25919 3.22847 9.14403 3.27289L9.14381 3.27298C9.13298 3.27715 9.12208 3.28109 9.11111 3.2848C9.02167 3.31505 8.92777 3.32986 8.83345 3.32864ZM0.5 2.85799V4.99044L8.8163 4.99054C9.13214 4.99408 9.44629 4.93759 9.74188 4.82355L9.74211 4.82347C9.96712 4.73664 10.1777 4.61789 10.3676 4.47138C10.4688 4.39337 10.564 4.30749 10.6525 4.21438L10.6526 4.21429C10.9072 3.94629 11.0991 3.62504 11.2144 3.27378L11.2144 3.27368C11.3297 2.92242 11.3655 2.54993 11.3193 2.18313L11.3192 2.18289C11.2729 1.81608 11.1458 1.46415 10.9469 1.15253L10.9468 1.15236C10.7478 0.840701 10.4821 0.57717 10.1688 0.380826L10.1688 0.380816C10.06 0.312584 9.9463 0.253059 9.82892 0.202618C9.60853 0.107908 9.37501 0.0452227 9.13544 0.0170586L9.13527 0.0170377C8.77836 -0.0248968 8.41672 0.0108121 8.0751 0.121573L8.07484 0.120863L8.04927 0.130102L8.04626 0.131118L8.04591 0.131235L8.04594 0.13131L0.5 2.85799ZM0.5 9.99837V11.7104L11.5048 15.6255L11.5047 15.6259C11.903 15.7848 12.3314 15.8539 12.7594 15.8282C12.924 15.8183 13.0869 15.7945 13.2466 15.7573C13.5021 15.6977 13.7492 15.6038 13.9809 15.4773C14.3573 15.272 14.6838 14.9861 14.9372 14.64C15.1905 14.294 15.3644 13.8963 15.4464 13.4753C15.5285 13.0543 15.5167 12.6204 15.412 12.2045C15.3072 11.7886 15.112 11.4009 14.8403 11.0691C14.673 10.8649 14.4793 10.6849 14.2648 10.5337C14.1309 10.4392 13.9888 10.3559 13.84 10.2849C13.4536 10.1006 13.0313 10.0036 12.6032 10.0009V9.99841L0.5 9.99837ZM12.5919 11.6652L5.34592 11.6652L12.1535 14.0871L12.1529 14.0888C12.3147 14.1485 12.4872 14.174 12.6596 14.1637C12.8429 14.1527 13.0215 14.1014 13.1827 14.0135C13.3439 13.9255 13.4837 13.8031 13.5922 13.6549C13.7007 13.5067 13.7751 13.3364 13.8103 13.1561C13.8454 12.9759 13.8404 12.7901 13.7955 12.612C13.7506 12.4339 13.6671 12.2679 13.5507 12.1258C13.4344 11.9837 13.2881 11.869 13.1224 11.79C12.9569 11.711 12.776 11.6695 12.5927 11.6683L12.5919 11.6683L12.5919 11.668L12.5919 11.6652ZM16.3484 3.5401L16.3476 3.54051L15.528 2.0893L15.5271 2.08762L15.5287 2.0867C15.9725 1.83625 16.4678 1.69089 16.9765 1.66181C17.0503 1.65759 17.124 1.65584 17.1977 1.65652C17.6325 1.66057 18.0631 1.7497 18.4649 1.91967C18.9348 2.11843 19.3528 2.42243 19.6867 2.80824C20.0207 3.19406 20.2616 3.6514 20.391 4.14504C20.5204 4.63868 20.5348 5.15544 20.4331 5.65551C20.3313 6.15559 20.1162 6.62564 19.8043 7.02945C19.5376 7.37473 19.2061 7.6637 18.8293 7.88063C18.7654 7.91741 18.7002 7.95212 18.6338 7.98468C18.1757 8.20929 17.6722 8.32573 17.162 8.32502V8.32477H0.5V6.6581H17.1643L17.1643 6.6563C17.4192 6.65666 17.6707 6.5985 17.8996 6.48629C18.1284 6.37409 18.3284 6.21084 18.4842 6.00913C18.6401 5.80741 18.7475 5.5726 18.7983 5.3228C18.8492 5.07299 18.842 4.81485 18.7773 4.56826C18.7127 4.32167 18.5923 4.09322 18.4255 3.90049C18.2587 3.70776 18.0499 3.5559 17.8152 3.45661C17.5805 3.35733 17.3261 3.31326 17.0717 3.3278C16.8175 3.34233 16.5701 3.41496 16.3484 3.5401Z" fill="url(#paint0_linear_1150_6342)"/>
<defs>
<linearGradient id="paint0_linear_1150_6342" x1="10.5" y1="0" x2="10.5" y2="15.8334" gradientUnits="userSpaceOnUse">
<stop stop-color="#CED3EA"/>
<stop offset="1" stop-color="#7E83A9"/>
</linearGradient>
</defs>
</svg>
