<svg width="54" height="64" viewBox="0 0 54 64" fill="none" xmlns="http://www.w3.org/2000/svg">
<g filter="url(#filter0_dd_862_4940)">
<path d="M40 21.6204C40 28.7744 33.5232 37.8124 27.0464 43.4796C20.5696 37.8124 14.0928 28.7744 14.0928 21.6204C14.0928 14.4663 19.8923 8.66675 27.0464 8.66675C34.2005 8.66675 40 14.4663 40 21.6204Z" fill="url(#paint0_linear_862_4940)"/>
<circle cx="27.0465" cy="21.6202" r="9.7152" fill="#F7F7F8"/>
</g>
<path d="M31.0171 20.3343C30.6165 20.3343 30.2425 20.4382 29.9053 20.6068L29.123 19.5425L29.4457 18.8103H30.382V18.1764H28.4803V18.8104H28.7567L28.4777 19.4436H25.1821L25.1669 19.4221C25.3051 18.9429 25.4001 18.5029 25.4597 18.1771L26.8949 18.1758V17.5419L24.9305 17.54H24.9254C24.9235 17.554 24.7447 18.9765 24.2199 20.236C24.1749 20.3438 24.1261 20.4445 24.0785 20.5472C23.7704 20.4109 23.4319 20.3342 23.075 20.3342C21.6804 20.3343 20.5464 21.4835 20.5464 22.8971C20.5464 24.3101 21.6804 25.46 23.075 25.46C24.469 25.46 25.603 24.3101 25.603 22.8971C25.603 22.0762 25.2131 21.3517 24.6192 20.8826C24.68 20.7526 24.7415 20.6227 24.7992 20.4845C24.8442 20.3774 24.8822 20.269 24.9222 20.1612L27.1453 23.2223L28.5164 23.1684C28.652 24.4527 29.7151 25.46 31.0177 25.46C32.4117 25.46 33.5464 24.3101 33.5464 22.8971C33.5457 21.4835 32.4117 20.3343 31.0171 20.3343ZM24.9742 22.8971C24.9742 23.9583 24.1222 24.8223 23.075 24.8223C22.0278 24.8223 21.1758 23.9589 21.1758 22.8971C21.1758 21.8354 22.0278 20.972 23.075 20.972C23.3292 20.972 23.5714 21.0246 23.7932 21.1172C23.4997 21.6522 23.2119 22.0655 23.0287 22.3095C22.7099 22.3425 22.4576 22.603 22.4576 22.9308C22.4576 23.2807 22.7416 23.5647 23.0915 23.5647C23.4414 23.5647 23.7254 23.2807 23.7254 22.9308C23.7254 22.8014 23.6772 22.688 23.6107 22.5878C23.8021 22.3254 24.0614 21.9412 24.3263 21.4608C24.72 21.8138 24.9742 22.3234 24.9742 22.8971ZM29.369 20.9701C28.9221 21.3637 28.6153 21.9083 28.5259 22.5295L27.7931 22.5586L28.8182 20.2335L29.369 20.9701ZM29.1585 22.5047C29.2415 22.099 29.4552 21.7447 29.7468 21.4766L30.4764 22.4528L29.1585 22.5047ZM28.1963 20.0813L27.2328 22.267L25.6455 20.0813H28.1963ZM31.0171 24.8217C30.0536 24.8217 29.2638 24.087 29.1427 23.1431L30.4143 23.093C30.4872 23.3624 30.723 23.564 31.0152 23.564C31.3651 23.564 31.6491 23.28 31.6491 22.9301C31.6491 22.6354 31.4437 22.3989 31.1712 22.3279L30.2837 21.1216C30.5094 21.0252 30.7572 20.972 31.0165 20.972C32.0637 20.972 32.9157 21.8354 32.9157 22.8972C32.9169 23.9583 32.065 24.8217 31.0171 24.8217Z" fill="#007AFF"/>
<defs>
<filter id="filter0_dd_862_4940" x="0.0927734" y="0.666748" width="53.9072" height="62.8129" filterUnits="userSpaceOnUse" color-interpolation-filters="sRGB">
<feFlood flood-opacity="0" result="BackgroundImageFix"/>
<feColorMatrix in="SourceAlpha" type="matrix" values="0 0 0 0 0 0 0 0 0 0 0 0 0 0 0 0 0 0 127 0" result="hardAlpha"/>
<feOffset dy="2"/>
<feGaussianBlur stdDeviation="1.5"/>
<feColorMatrix type="matrix" values="0 0 0 0 0 0 0 0 0 0 0 0 0 0 0 0 0 0 0.3 0"/>
<feBlend mode="normal" in2="BackgroundImageFix" result="effect1_dropShadow_862_4940"/>
<feColorMatrix in="SourceAlpha" type="matrix" values="0 0 0 0 0 0 0 0 0 0 0 0 0 0 0 0 0 0 127 0" result="hardAlpha"/>
<feMorphology radius="4" operator="dilate" in="SourceAlpha" result="effect2_dropShadow_862_4940"/>
<feOffset dy="6"/>
<feGaussianBlur stdDeviation="5"/>
<feColorMatrix type="matrix" values="0 0 0 0 0 0 0 0 0 0 0 0 0 0 0 0 0 0 0.15 0"/>
<feBlend mode="normal" in2="effect1_dropShadow_862_4940" result="effect2_dropShadow_862_4940"/>
<feBlend mode="normal" in="SourceGraphic" in2="effect2_dropShadow_862_4940" result="shape"/>
</filter>
<linearGradient id="paint0_linear_862_4940" x1="27.0464" y1="8.66675" x2="27.0464" y2="43.4796" gradientUnits="userSpaceOnUse">
<stop stop-color="#01E9BD"/>
<stop offset="1" stop-color="#6BB5FF"/>
</linearGradient>
</defs>
</svg>
