<svg width="87" height="107" viewBox="0 0 87 107" fill="none" xmlns="http://www.w3.org/2000/svg">
<g filter="url(#filter0_dd_862_4940)">
<path d="M72.0777 37.8405C72.0777 53.8526 57.5814 74.081 43.0852 86.7652C28.589 74.081 14.0928 53.8526 14.0928 37.8405C14.0928 21.8284 27.0731 8.84802 43.0852 8.84802C59.0973 8.84802 72.0777 21.8284 72.0777 37.8405Z" fill="url(#paint0_linear_862_4940)"/>
<ellipse cx="43.0852" cy="37.8403" rx="21.7443" ry="21.7443" fill="#F7F7F8"/>
</g>
<path d="M51.9725 34.962C51.0758 34.962 50.2387 35.1947 49.4839 35.572L47.7332 33.1899L48.4554 31.5512H50.5509V30.1324H46.2946V31.5512H46.9131L46.2889 32.9686H38.9126L38.8786 32.9203C39.1878 31.8478 39.4006 30.8631 39.534 30.1338L42.7462 30.131V28.7123L38.3494 28.708H38.3381C38.3338 28.7392 37.9338 31.923 36.759 34.742C36.6583 34.9832 36.549 35.2088 36.4426 35.4386C35.7531 35.1336 34.9954 34.9619 34.1967 34.9619C31.0753 34.962 28.5371 37.5342 28.5371 40.6981C28.5371 43.8606 31.0753 46.4342 34.1966 46.4342C37.3165 46.4342 39.8547 43.8606 39.8547 40.6981C39.8547 38.8608 38.9821 37.2391 37.6527 36.1892C37.7889 35.8984 37.9265 35.6075 38.0556 35.2982C38.1564 35.0585 38.2415 34.8158 38.3309 34.5747L43.3066 41.4259L46.3753 41.3053C46.6789 44.1798 49.0583 46.4342 51.9738 46.4342C55.0937 46.4342 57.6333 43.8606 57.6333 40.6981C57.6319 37.5342 55.0937 34.962 51.9725 34.962ZM38.4473 40.6981C38.4473 43.0731 36.5405 45.0069 34.1966 45.0069C31.8527 45.0069 29.9459 43.0745 29.9459 40.6981C29.9459 38.3217 31.8527 36.3893 34.1966 36.3893C34.7655 36.3893 35.3075 36.5071 35.8041 36.7142C35.1472 37.9117 34.5031 38.8367 34.093 39.383C33.3794 39.4567 32.8147 40.0399 32.8147 40.7734C32.8147 41.5566 33.4503 42.1921 34.2335 42.1921C35.0167 42.1921 35.6523 41.5566 35.6523 40.7734C35.6523 40.4839 35.5445 40.23 35.3955 40.0058C35.824 39.4185 36.4042 38.5587 36.9973 37.4833C37.8783 38.2734 38.4473 39.4141 38.4473 40.6981ZM48.2837 36.3851C47.2834 37.2661 46.5967 38.4848 46.3967 39.8753L44.7566 39.9405L47.0508 34.7365L48.2837 36.3851ZM47.8126 39.8199C47.9984 38.9119 48.4766 38.1187 49.1292 37.5186L50.7622 39.7036L47.8126 39.8199ZM45.6589 34.3959L43.5024 39.2879L39.9498 34.3959H45.6589ZM51.9725 45.0055C49.8159 45.0055 48.0481 43.3612 47.7772 41.2486L50.6232 41.1365C50.7864 41.7395 51.3142 42.1907 51.9682 42.1907C52.7514 42.1907 53.387 41.5551 53.387 40.7719C53.387 40.1122 52.9273 39.583 52.3172 39.4241L50.3309 36.7242C50.836 36.5085 51.3907 36.3894 51.971 36.3894C54.3148 36.3894 56.2217 38.3218 56.2217 40.6982C56.2245 43.0731 54.3177 45.0055 51.9725 45.0055Z" fill="#007AFF"/>
<defs>
<filter id="filter0_dd_862_4940" x="0.0927734" y="0.848022" width="85.9849" height="105.917" filterUnits="userSpaceOnUse" color-interpolation-filters="sRGB">
<feFlood flood-opacity="0" result="BackgroundImageFix"/>
<feColorMatrix in="SourceAlpha" type="matrix" values="0 0 0 0 0 0 0 0 0 0 0 0 0 0 0 0 0 0 127 0" result="hardAlpha"/>
<feOffset dy="2"/>
<feGaussianBlur stdDeviation="1.5"/>
<feColorMatrix type="matrix" values="0 0 0 0 0 0 0 0 0 0 0 0 0 0 0 0 0 0 0.3 0"/>
<feBlend mode="normal" in2="BackgroundImageFix" result="effect1_dropShadow_862_4940"/>
<feColorMatrix in="SourceAlpha" type="matrix" values="0 0 0 0 0 0 0 0 0 0 0 0 0 0 0 0 0 0 127 0" result="hardAlpha"/>
<feMorphology radius="4" operator="dilate" in="SourceAlpha" result="effect2_dropShadow_862_4940"/>
<feOffset dy="6"/>
<feGaussianBlur stdDeviation="5"/>
<feColorMatrix type="matrix" values="0 0 0 0 0 0 0 0 0 0 0 0 0 0 0 0 0 0 0.15 0"/>
<feBlend mode="normal" in2="effect1_dropShadow_862_4940" result="effect2_dropShadow_862_4940"/>
<feBlend mode="normal" in="SourceGraphic" in2="effect2_dropShadow_862_4940" result="shape"/>
</filter>
<linearGradient id="paint0_linear_862_4940" x1="43.0852" y1="8.84802" x2="43.0852" y2="86.7652" gradientUnits="userSpaceOnUse">
<stop stop-color="#01E9BD"/>
<stop offset="1" stop-color="#6BB5FF"/>
</linearGradient>
</defs>
</svg>
