<svg width="20" height="20" viewBox="0 0 20 20" fill="none" xmlns="http://www.w3.org/2000/svg">
<g clip-path="url(#clip0_588_9405)">
<path d="M20.75 13.3334V17.5C20.75 18.1631 20.4866 18.799 20.0178 19.2678C19.5489 19.7366 18.913 20 18.25 20H14.0833C12.9142 19.9988 11.766 19.6902 10.7539 19.1052C9.74172 18.5201 8.90121 17.6792 8.31667 16.6667C8.94489 16.6622 9.57098 16.5929 10.185 16.46C10.6526 17.0447 11.2458 17.5167 11.9207 17.841C12.5955 18.1653 13.3346 18.3336 14.0833 18.3334H18.25C18.471 18.3334 18.683 18.2456 18.8393 18.0893C18.9955 17.933 19.0833 17.721 19.0833 17.5V13.3334C19.0831 12.5844 18.9143 11.8451 18.5895 11.1702C18.2646 10.4954 17.792 9.90232 17.2067 9.43503C17.3407 8.82113 17.4111 8.19504 17.4167 7.5667C18.4291 8.15124 19.2701 8.99175 19.8551 10.0039C20.4402 11.0161 20.7488 12.1643 20.75 13.3334ZM15.7308 8.04253C15.8088 6.9689 15.6547 5.89107 15.279 4.88228C14.9034 3.87349 14.315 2.95738 13.5538 2.19621C12.7926 1.43504 11.8765 0.84664 10.8678 0.470994C9.85896 0.0953475 8.78113 -0.0587419 7.7075 0.0191962C5.80493 0.236473 4.04744 1.14184 2.76598 2.56482C1.48452 3.98779 0.767523 5.83017 0.75 7.74503L0.75 11.945C0.75 14.055 2.00583 15 3.25 15H8C9.91567 14.9835 11.7592 14.267 13.1832 12.9855C14.6071 11.704 15.5133 9.94588 15.7308 8.04253V8.04253ZM12.375 3.37586C12.9666 3.96878 13.424 4.68186 13.7161 5.46685C14.0082 6.25184 14.1284 7.09043 14.0683 7.92586C13.8905 9.41226 13.1754 10.7824 12.0578 11.7783C10.9401 12.7742 9.49699 13.3273 8 13.3334H3.25C2.47667 13.3334 2.41667 12.2709 2.41667 11.945V7.74503C2.42361 6.24868 2.97721 4.80645 3.97326 3.68976C4.96932 2.57307 6.33916 1.85892 7.825 1.6817C7.96333 1.6717 8.10167 1.6667 8.24 1.6667C9.00772 1.66598 9.76807 1.81656 10.4776 2.10983C11.1871 2.4031 11.8318 2.8333 12.375 3.37586Z" fill="#333333"/>
</g>
<defs>
<clipPath id="clip0_588_9405">
<rect width="20" height="20" fill="white" transform="translate(0.75)"/>
</clipPath>
</defs>
</svg>
