<svg width="87" height="107" viewBox="0 0 87 107" fill="none" xmlns="http://www.w3.org/2000/svg">
<g filter="url(#filter0_dd_869_4927)">
<path d="M72.2747 37.3596C72.2747 53.3717 57.7785 73.6002 43.2822 86.2844C28.786 73.6002 14.2898 53.3717 14.2898 37.3596C14.2898 21.3475 27.2702 8.36719 43.2822 8.36719C59.2943 8.36719 72.2747 21.3475 72.2747 37.3596Z" fill="#64B9FA"/>
<ellipse cx="43.2822" cy="37.3594" rx="21.7443" ry="21.7443" fill="#F7F7F8"/>
</g>
<path d="M49.4198 32.9286C49.4198 34.5723 50.5739 36.2859 53.1618 36.9678L52.1301 38.7339C50.3291 38.2443 49.0614 37.2039 48.3532 35.8837C47.645 37.335 46.3686 38.4629 44.5063 38.9962L43.4397 37.2476C46.0276 36.5482 47.1991 34.7122 47.1991 32.9286H43.9992V31.1626H47.1991V29.449H49.4548V31.1626H52.6372V32.9286H49.4198ZM56.1868 29.5014V33.4182H58.3376V35.2892H56.1868V39.2585H53.9486V29.5014H56.1868ZM56.1868 39.9055V45.4309H53.9486V41.689H45.468V39.9055H56.1868Z" fill="#555555"/>
<path d="M41.0616 36.6181V38.3842H36.4453V41.7764H42.6528V43.5949H28.0872V41.7764H34.2247V38.3842H29.8008V30.6205H40.9392V32.404H32.0389V36.6181H41.0616Z" fill="#555555"/>
<defs>
<filter id="filter0_dd_869_4927" x="0.289795" y="0.367188" width="85.9849" height="105.917" filterUnits="userSpaceOnUse" color-interpolation-filters="sRGB">
<feFlood flood-opacity="0" result="BackgroundImageFix"/>
<feColorMatrix in="SourceAlpha" type="matrix" values="0 0 0 0 0 0 0 0 0 0 0 0 0 0 0 0 0 0 127 0" result="hardAlpha"/>
<feOffset dy="2"/>
<feGaussianBlur stdDeviation="1.5"/>
<feColorMatrix type="matrix" values="0 0 0 0 0 0 0 0 0 0 0 0 0 0 0 0 0 0 0.3 0"/>
<feBlend mode="normal" in2="BackgroundImageFix" result="effect1_dropShadow_869_4927"/>
<feColorMatrix in="SourceAlpha" type="matrix" values="0 0 0 0 0 0 0 0 0 0 0 0 0 0 0 0 0 0 127 0" result="hardAlpha"/>
<feMorphology radius="4" operator="dilate" in="SourceAlpha" result="effect2_dropShadow_869_4927"/>
<feOffset dy="6"/>
<feGaussianBlur stdDeviation="5"/>
<feColorMatrix type="matrix" values="0 0 0 0 0 0 0 0 0 0 0 0 0 0 0 0 0 0 0.15 0"/>
<feBlend mode="normal" in2="effect1_dropShadow_869_4927" result="effect2_dropShadow_869_4927"/>
<feBlend mode="normal" in="SourceGraphic" in2="effect2_dropShadow_869_4927" result="shape"/>
</filter>
</defs>
</svg>
