<?xml version="1.0" encoding="UTF-8"?>
<svg id="_레이어_1" data-name="레이어_1" xmlns="http://www.w3.org/2000/svg" xmlns:xlink="http://www.w3.org/1999/xlink" viewBox="0 0 500 145">
  <defs>
    <clipPath id="clippath">
      <path d="M290.94,57.31c.8,3.9,4.4,7,10.3,7,6.5,0,10.5-3.5,10.5-8.8s-4-8.6-10.5-8.6-10.4,3.6-10.4,9.4l-26.5-2c0-17.4,15-27.4,36.9-27.4,9.9,0,18.2,2.1,24.5,6h17.1v-5.9h26.5v57.9h-26.5v-8h-14.4c-6.4,5.1-15.8,8-27.2,8-22,0-36.9-11.1-36.9-27.6h26.6ZM369.34,87.42v32.4h-28.5v-13.9h-67v-18.5h95.51ZM338.24,55.91c0,1.3-.1,2.5-.2,3.7h4.8v-9.3h-5.1c.3,1.8.5,3.6.5,5.6Z" style="fill: none;"/>
    </clipPath>
    <radialGradient id="radial-gradient" cx="442.45" cy="110.59" fx="442.45" fy="110.59" r="39.59" gradientTransform="translate(-82.41 81.13) scale(1.14 .27)" gradientUnits="userSpaceOnUse">
      <stop offset="0" stop-color="#007aff"/>
      <stop offset="1" stop-color="#007aff" stop-opacity="0"/>
    </radialGradient>
    <linearGradient id="linear-gradient" x1="420.27" y1="23.3" x2="420.27" y2="110.3" gradientUnits="userSpaceOnUse">
      <stop offset="0" stop-color="#01e9bd"/>
      <stop offset="1" stop-color="#6bb5ff"/>
    </linearGradient>
    <filter id="drop-shadow-4" filterUnits="userSpaceOnUse">
      <feOffset dx="0" dy="1"/>
      <feGaussianBlur result="blur" stdDeviation="4"/>
      <feFlood flood-color="#0c0c0d" flood-opacity=".1"/>
      <feComposite in2="blur" operator="in"/>
      <feComposite in="SourceGraphic"/>
    </filter>
  </defs>
  <path d="M67.34,74.11c.2,12,3.3,19.2,9.9,19.2s10-7.7,10-20.7-3.2-21.2-10-21.2-9.7,7.7-9.9,21.7l-27-2c.4-28.1,12.8-42.9,36.9-42.9s37,15.3,37,44.4-12.5,44.5-37,44.5-36.5-14.8-36.9-43h27Z" style="fill: #333;"/>
  <rect x="116.84" y="27.01" width="28.5" height="92.81" style="fill: #333;"/>
  <path d="M154.33,28.51h25.5v10.4h18.4c-.3-3-.8-6.1-1.4-9.4l24-1c1.7,4.9,2.8,10.7,3.1,16.9h6.9v-18.4h26.5v68.8h-26.5v-27.4h-6.6v19.5h-40.6c-23,0-29.3-6.2-29.3-25.2V28.51ZM190.84,90.92v8.4h68.5v20.5h-97.01v-28.9h28.5ZM188.54,67.91h9.4c.5-3.8.9-7.4,1-11h-19.1v3.3c0,6.5,1.9,7.7,8.7,7.7Z" style="fill: #333;"/>
  <g style="clip-path: url(#clippath);">
    <rect x="322.78" y="14.51" width="47.7" height="73.43" style="fill: #333;"/>
    <ellipse cx="299.79" cy="56" rx="38.61" ry="31.22" style="fill: #333;"/>
    <rect x="270.21" y="85.56" width="100.28" height="37.31" style="fill: #333;"/>
  </g>
  <g>
    <ellipse cx="420.27" cy="110.59" rx="48.19" ry="11.44" style="fill: url(#radial-gradient); opacity: .5;"/>
    <g>
      <path d="M420.27,23.3c-17.16,0-31.07,13.91-31.07,31.07,0,2.28.26,4.5.73,6.64,3.52,18.18,30.34,49.29,30.34,49.29,0,0,26.82-31.11,30.34-49.29.47-2.14.73-4.36.73-6.64,0-17.16-13.91-31.07-31.07-31.07Z" style="fill: url(#linear-gradient); filter: url(#drop-shadow-4);"/>
      <circle cx="420.27" cy="53.69" r="20" style="fill: #fff;"/>
    </g>
  </g>
</svg>