<svg width="20" height="20" viewBox="0 0 20 20" fill="none" xmlns="http://www.w3.org/2000/svg">
<g clip-path="url(#clip0_588_9395)">
<path d="M19.2677 7.55727L12.9469 1.2356C12.1646 0.455591 11.1049 0.0175781 10.0002 0.0175781C8.89548 0.0175781 7.83582 0.455591 7.05353 1.2356L0.732693 7.55727C0.499714 7.78875 0.315001 8.06418 0.189262 8.36759C0.0635225 8.67099 -0.000742228 8.99634 0.000193172 9.32477V17.5056C0.000193172 18.1686 0.263585 18.8045 0.732426 19.2734C1.20127 19.7422 1.83715 20.0056 2.50019 20.0056H17.5002C18.1632 20.0056 18.7991 19.7422 19.268 19.2734C19.7368 18.8045 20.0002 18.1686 20.0002 17.5056V9.32477C20.0011 8.99634 19.9369 8.67099 19.8111 8.36759C19.6854 8.06418 19.5007 7.78875 19.2677 7.55727V7.55727ZM12.5002 18.3389H7.50019V15.0606C7.50019 14.3976 7.76359 13.7617 8.23243 13.2928C8.70127 12.824 9.33715 12.5606 10.0002 12.5606C10.6632 12.5606 11.2991 12.824 11.768 13.2928C12.2368 13.7617 12.5002 14.3976 12.5002 15.0606V18.3389ZM18.3335 17.5056C18.3335 17.7266 18.2457 17.9386 18.0895 18.0949C17.9332 18.2511 17.7212 18.3389 17.5002 18.3389H14.1669V15.0606C14.1669 13.9555 13.7279 12.8957 12.9465 12.1143C12.1651 11.3329 11.1053 10.8939 10.0002 10.8939C8.89513 10.8939 7.83532 11.3329 7.05392 12.1143C6.27251 12.8957 5.83353 13.9555 5.83353 15.0606V18.3389H2.50019C2.27918 18.3389 2.06722 18.2511 1.91094 18.0949C1.75466 17.9386 1.66686 17.7266 1.66686 17.5056V9.32477C1.66763 9.10392 1.75535 8.89225 1.91103 8.7356L8.23186 2.41643C8.70161 1.94887 9.33742 1.68639 10.0002 1.68639C10.663 1.68639 11.2988 1.94887 11.7685 2.41643L18.0894 8.7381C18.2444 8.89414 18.3321 9.10478 18.3335 9.32477V17.5056Z" fill="black"/>
</g>
<defs>
<clipPath id="clip0_588_9395">
<rect width="20" height="20" fill="white"/>
</clipPath>
</defs>
</svg>
