<svg width="24" height="24" viewBox="0 0 24 24" fill="none" xmlns="http://www.w3.org/2000/svg">
<g clip-path="url(#clip0_584_9048)">
<path d="M17 2L19 2C19.7957 2 20.5587 2.31607 21.1213 2.87868C21.6839 3.44129 22 4.20435 22 5L22 19C22 19.7956 21.6839 20.5587 21.1213 21.1213C20.5587 21.6839 19.7956 22 19 22L17 22C16.7348 22 16.4804 22.1054 16.2929 22.2929C16.1054 22.4804 16 22.7348 16 23C16 23.2652 16.1054 23.5196 16.2929 23.7071C16.4804 23.8946 16.7348 24 17 24L19 24C20.3256 23.9984 21.5964 23.4711 22.5338 22.5338C23.4711 21.5964 23.9984 20.3256 24 19L24 5C23.9984 3.6744 23.4711 2.40356 22.5338 1.46622C21.5964 0.528881 20.3256 0.00158659 19 -4.37114e-07L17 -6.11959e-07C16.7348 -6.35145e-07 16.4804 0.105356 16.2929 0.292892C16.1054 0.480428 16 0.734782 16 0.999999C16 1.26522 16.1054 1.51957 16.2929 1.70711C16.4804 1.89464 16.7348 2 17 2Z" fill="black"/>
<path d="M1.00015 12.9997L16.7772 12.9677C16.6894 13.1306 16.5798 13.2807 16.4512 13.4137L12.5722 17.2927C12.4766 17.3849 12.4005 17.4953 12.3481 17.6173C12.2956 17.7393 12.2681 17.8705 12.2669 18.0033C12.2657 18.1361 12.2911 18.2677 12.3413 18.3906C12.3916 18.5135 12.4659 18.6252 12.5598 18.7191C12.6537 18.813 12.7653 18.8872 12.8882 18.9375C13.0111 18.9878 13.1428 19.0131 13.2756 19.0119C13.4083 19.0108 13.5396 18.9832 13.6616 18.9308C13.7836 18.8784 13.8939 18.8022 13.9862 18.7067L17.8672 14.8277C18.617 14.0776 19.0383 13.0603 19.0383 11.9997C19.0383 10.939 18.617 9.92178 17.8672 9.17167L13.9882 5.29267C13.8959 5.19716 13.7856 5.12098 13.6636 5.06857C13.5416 5.01616 13.4103 4.98858 13.2776 4.98742C13.1448 4.98627 13.0131 5.01157 12.8902 5.06185C12.7673 5.11213 12.6557 5.18639 12.5618 5.28028C12.4679 5.37417 12.3936 5.48582 12.3433 5.60872C12.2931 5.73162 12.2677 5.86329 12.2689 5.99607C12.2701 6.12885 12.2976 6.26007 12.3501 6.38208C12.4025 6.50408 12.4786 6.61443 12.5742 6.70667L16.4532 10.5857C16.5651 10.7009 16.6628 10.8292 16.7442 10.9677L1.00015 10.9997C0.734936 10.9997 0.480582 11.105 0.293046 11.2926C0.105509 11.4801 0.000153224 11.7345 0.000153201 11.9997C0.000153178 12.2649 0.105509 12.5192 0.293046 12.7068C0.480582 12.8943 0.734936 12.9997 1.00015 12.9997Z" fill="black"/>
</g>
<defs>
<clipPath id="clip0_584_9048">
<rect width="24" height="24" fill="white" transform="translate(24 24) rotate(-180)"/>
</clipPath>
</defs>
</svg>
