<svg width="22" height="22" viewBox="0 0 22 22" fill="none" xmlns="http://www.w3.org/2000/svg">
<path d="M20.9265 8.40682L17.3707 4.85107C17.1978 4.68409 16.9663 4.5917 16.7259 4.59378C16.4856 4.59587 16.2557 4.69228 16.0857 4.86224C15.9157 5.03219 15.8193 5.2621 15.8173 5.50245C15.8152 5.7428 15.9076 5.97435 16.0745 6.14724L19.6303 9.70299C19.7359 9.81072 19.8283 9.93075 19.9053 10.0605C19.8915 10.0605 19.8805 10.0532 19.8668 10.0532L5.48979 10.0825C5.24667 10.0825 5.01351 10.1791 4.84161 10.351C4.6697 10.5229 4.57312 10.756 4.57312 10.9992C4.57312 11.2423 4.6697 11.4754 4.84161 11.6473C5.01351 11.8192 5.24667 11.9158 5.48979 11.9158L19.8613 11.8865C19.887 11.8865 19.908 11.8737 19.9328 11.8718C19.8515 12.0269 19.7484 12.1695 19.6266 12.2953L16.0709 15.8511C15.9833 15.9356 15.9135 16.0368 15.8654 16.1486C15.8174 16.2605 15.7921 16.3807 15.7911 16.5025C15.79 16.6242 15.8132 16.7449 15.8593 16.8575C15.9054 16.9702 15.9734 17.0725 16.0595 17.1586C16.1456 17.2447 16.2479 17.3127 16.3606 17.3588C16.4732 17.4049 16.5939 17.4281 16.7157 17.427C16.8374 17.426 16.9577 17.4007 17.0695 17.3527C17.1813 17.3046 17.2825 17.2348 17.367 17.1472L20.9228 13.5915C21.6102 12.9039 21.9963 11.9714 21.9963 10.9992C21.9963 10.0269 21.6102 9.09442 20.9228 8.40682H20.9265Z" fill="black"/>
<path d="M6.41667 20.1667H4.58333C3.85399 20.1667 3.15451 19.8769 2.63879 19.3612C2.12306 18.8455 1.83333 18.146 1.83333 17.4167V4.58333C1.83333 3.85399 2.12306 3.15451 2.63879 2.63879C3.15451 2.12306 3.85399 1.83333 4.58333 1.83333H6.41667C6.65978 1.83333 6.89294 1.73676 7.06485 1.56485C7.23676 1.39294 7.33333 1.15978 7.33333 0.916667C7.33333 0.673552 7.23676 0.440394 7.06485 0.268485C6.89294 0.0965771 6.65978 0 6.41667 0L4.58333 0C3.3682 0.00145554 2.20326 0.484808 1.34403 1.34403C0.484808 2.20326 0.00145554 3.3682 0 4.58333L0 17.4167C0.00145554 18.6318 0.484808 19.7967 1.34403 20.656C2.20326 21.5152 3.3682 21.9985 4.58333 22H6.41667C6.65978 22 6.89294 21.9034 7.06485 21.7315C7.23676 21.5596 7.33333 21.3264 7.33333 21.0833C7.33333 20.8402 7.23676 20.6071 7.06485 20.4352C6.89294 20.2632 6.65978 20.1667 6.41667 20.1667Z" fill="black"/>
</svg>
