<svg width="65" height="21" viewBox="0 0 65 21" fill="none" xmlns="http://www.w3.org/2000/svg">
<path d="M0.10033 15.096V5.832C0.10033 2.472 2.26033 0.0719991 6.82033 0.0719991C11.3803 0.0719991 13.5403 2.472 13.5403 5.832V15.096C13.5403 18.456 11.3803 20.856 6.82033 20.856C2.26033 20.856 0.10033 18.456 0.10033 15.096ZM15.2203 20.616V0.311999H20.0203V20.616H15.2203ZM6.82033 0.839999C6.82033 7.896 3.50833 10.368 0.60433 10.488C3.50833 10.608 6.82033 13.056 6.82033 20.088C6.82033 13.056 10.1083 10.584 13.0123 10.464C10.1083 10.344 6.82033 7.896 6.82033 0.839999ZM37.5328 14.376V7.872H35.6128V11.496H22.4128V0.311999H27.2128V2.064H30.8128V0.311999H35.6128V3.792H37.5328V0.311999H42.3328V14.376H37.5328ZM29.0128 2.712C28.9408 5.208 27.4288 6.696 25.5568 6.768C27.4768 6.84 29.0128 8.424 29.0128 11.016C29.0128 8.424 30.5488 6.84 32.4688 6.768C30.5968 6.696 29.0848 5.208 29.0128 2.712ZM22.4128 13.008H27.2128V16.896L33.2128 16.872C36.3328 16.848 39.6928 16.608 42.4528 16.176V20.616H22.4128V13.008ZM59.8453 10.968V9.624H56.5813C55.4053 10.488 53.6533 11.016 51.4453 11.016C47.1253 11.016 44.6053 9.048 44.6053 6.408V4.68C44.6053 2.04 47.1253 0.0719991 51.4453 0.0719991C53.6533 0.0719991 55.3813 0.599999 56.5573 1.44H59.8453V0.311999H64.6453V10.968H59.8453ZM51.4453 1.32C51.3253 4.224 49.1893 5.52 46.4293 5.568C49.2613 5.64 51.4453 6.96 51.4453 10.008C51.4453 6.96 53.6053 5.616 56.4613 5.544C53.6773 5.496 51.5413 4.224 51.4453 1.32ZM58.2853 5.04V6.024H59.8453V5.04H58.2853ZM64.6453 20.616H59.8453V15.408H44.7253V11.688H64.6453V20.616Z" fill="black"/>
</svg>
