<svg width="20" height="20" viewBox="0 0 20 20" fill="none" xmlns="http://www.w3.org/2000/svg">
<g clip-path="url(#clip0_588_9402)">
<path d="M10.5001 5C9.84081 5 9.19635 5.1955 8.64818 5.56177C8.10002 5.92804 7.67278 6.44863 7.42048 7.05772C7.16819 7.66681 7.10218 8.33703 7.2308 8.98363C7.35942 9.63024 7.67689 10.2242 8.14306 10.6904C8.60924 11.1565 9.20318 11.474 9.84978 11.6026C10.4964 11.7312 11.1666 11.6652 11.7757 11.4129C12.3848 11.1606 12.9054 10.7334 13.2716 10.1852C13.6379 9.63707 13.8334 8.9926 13.8334 8.33333C13.8334 7.44928 13.4822 6.60143 12.8571 5.97631C12.232 5.35119 11.3841 5 10.5001 5ZM10.5001 10C10.1704 10 9.84822 9.90225 9.57413 9.71912C9.30005 9.53598 9.08643 9.27568 8.96028 8.97114C8.83414 8.6666 8.80113 8.33148 8.86544 8.00818C8.92975 7.68488 9.08848 7.38791 9.32157 7.15482C9.55466 6.92173 9.85163 6.763 10.1749 6.69869C10.4982 6.63438 10.8333 6.66739 11.1379 6.79353C11.4424 6.91968 11.7027 7.1333 11.8859 7.40738C12.069 7.68146 12.1668 8.0037 12.1668 8.33333C12.1668 8.77536 11.9912 9.19928 11.6786 9.51184C11.366 9.8244 10.9421 10 10.5001 10Z" fill="#333333"/>
<path d="M10.5 20.0002C9.79824 20.0038 9.10588 19.8392 8.48084 19.5202C7.85581 19.2013 7.31628 18.7372 6.90746 18.1669C3.73162 13.786 2.12079 10.4927 2.12079 8.3777C2.12079 6.15541 3.00359 4.02414 4.57499 2.45274C6.14639 0.881338 8.27766 -0.00146484 10.5 -0.00146484C12.7222 -0.00146484 14.8535 0.881338 16.4249 2.45274C17.9963 4.02414 18.8791 6.15541 18.8791 8.3777C18.8791 10.4927 17.2683 13.786 14.0925 18.1669C13.6836 18.7372 13.1441 19.2013 12.5191 19.5202C11.894 19.8392 11.2017 20.0038 10.5 20.0002V20.0002ZM10.5 1.8177C8.7603 1.81969 7.09247 2.51164 5.86235 3.74176C4.63223 4.97188 3.94027 6.63972 3.93829 8.37937C3.93829 10.0544 5.51579 13.1519 8.37912 17.101C8.6222 17.4359 8.9411 17.7084 9.30972 17.8963C9.67834 18.0842 10.0862 18.1821 10.5 18.1821C10.9137 18.1821 11.3216 18.0842 11.6902 17.8963C12.0588 17.7084 12.3777 17.4359 12.6208 17.101C15.4841 13.1519 17.0616 10.0544 17.0616 8.37937C17.0596 6.63972 16.3677 4.97188 15.1376 3.74176C13.9074 2.51164 12.2396 1.81969 10.5 1.8177V1.8177Z" fill="#333333"/>
</g>
<defs>
<clipPath id="clip0_588_9402">
<rect width="20" height="20" fill="white" transform="translate(0.5)"/>
</clipPath>
</defs>
</svg>
