<svg width="54" height="64" viewBox="0 0 54 64" fill="none" xmlns="http://www.w3.org/2000/svg">
<g filter="url(#filter0_dd_869_4926)">
<path d="M40 21.4252C40 28.5792 33.5232 37.6172 27.0464 43.2844C20.5696 37.6172 14.0928 28.5792 14.0928 21.4252C14.0928 14.2711 19.8923 8.47156 27.0464 8.47156C34.2005 8.47156 40 14.2711 40 21.4252Z" fill="#09E6C2"/>
<circle cx="27.0465" cy="21.425" r="9.7152" fill="#F7F7F8"/>
</g>
<path d="M27.2261 20.9454V21.672H24.4917V22.1173H26.4526V23.8517H22.4917V24.2423H26.6401V24.9767H21.5151V23.1798H25.4683V22.8282H21.5073V22.1173H23.4995V21.672H20.7729V20.9454H27.2261ZM24.4839 17.9064V18.4689H26.6167V19.2032H24.6089C24.8042 19.6173 25.5308 19.9572 26.9683 20.0157L26.6792 20.7501C25.3589 20.6876 24.4448 20.3517 23.9917 19.8126C23.5425 20.3517 22.6245 20.6876 21.2964 20.7501L21.0229 20.0157C22.4487 19.9572 23.1714 19.6173 23.3745 19.2032H21.3823V18.4689H23.4995V17.9064H24.4839ZM28.8745 18.2345V19.0782H30.3276V18.2345H31.3276V21.3361H27.8823V18.2345H28.8745ZM28.8745 20.5548H30.3276V19.8282H28.8745V20.5548ZM33.312 17.9142V19.297H34.2729V20.1017H33.312V21.5314H32.312V17.9142H33.312ZM33.312 21.797V23.7267H29.5854V24.1876H33.5151V24.9767H28.6089V23.0157H32.3198V22.5704H28.5933V21.797H33.312Z" fill="#555555"/>
<defs>
<filter id="filter0_dd_869_4926" x="0.0927734" y="0.471558" width="53.9072" height="62.8129" filterUnits="userSpaceOnUse" color-interpolation-filters="sRGB">
<feFlood flood-opacity="0" result="BackgroundImageFix"/>
<feColorMatrix in="SourceAlpha" type="matrix" values="0 0 0 0 0 0 0 0 0 0 0 0 0 0 0 0 0 0 127 0" result="hardAlpha"/>
<feOffset dy="2"/>
<feGaussianBlur stdDeviation="1.5"/>
<feColorMatrix type="matrix" values="0 0 0 0 0 0 0 0 0 0 0 0 0 0 0 0 0 0 0.3 0"/>
<feBlend mode="normal" in2="BackgroundImageFix" result="effect1_dropShadow_869_4926"/>
<feColorMatrix in="SourceAlpha" type="matrix" values="0 0 0 0 0 0 0 0 0 0 0 0 0 0 0 0 0 0 127 0" result="hardAlpha"/>
<feMorphology radius="4" operator="dilate" in="SourceAlpha" result="effect2_dropShadow_869_4926"/>
<feOffset dy="6"/>
<feGaussianBlur stdDeviation="5"/>
<feColorMatrix type="matrix" values="0 0 0 0 0 0 0 0 0 0 0 0 0 0 0 0 0 0 0.15 0"/>
<feBlend mode="normal" in2="effect1_dropShadow_869_4926" result="effect2_dropShadow_869_4926"/>
<feBlend mode="normal" in="SourceGraphic" in2="effect2_dropShadow_869_4926" result="shape"/>
</filter>
</defs>
</svg>
