<svg width="25" height="25" viewBox="0 0 25 25" fill="none" xmlns="http://www.w3.org/2000/svg">
<g clip-path="url(#clip0_1473_12850)">
<path d="M19.9793 9.77689L5.19434 0.337891V24.3379L19.9733 14.8649C20.4035 14.5945 20.7582 14.2195 21.0042 13.7749C21.2502 13.3303 21.3796 12.8307 21.3802 12.3225C21.3808 11.8144 21.2526 11.3145 21.0076 10.8693C20.7627 10.4241 20.4089 10.0483 19.9793 9.77689V9.77689ZM18.8993 13.1719L7.19934 20.6719V3.99589L18.9063 11.4699C19.0507 11.5602 19.1696 11.6858 19.2518 11.8349C19.334 11.984 19.3768 12.1516 19.3761 12.3218C19.3754 12.4921 19.3312 12.6593 19.2478 12.8077C19.1644 12.9562 19.0444 13.0808 18.8993 13.1699V13.1719Z" fill="#374957"/>
</g>
<defs>
<clipPath id="clip0_1473_12850">
<rect width="24" height="24" fill="white" transform="translate(0.214355 0.319336)"/>
</clipPath>
</defs>
</svg>
