<svg width="31" height="30" viewBox="0 0 31 30" fill="none" xmlns="http://www.w3.org/2000/svg">
<circle cx="15.5" cy="15" r="15" fill="#69A5FF"/>
<path d="M20.5 14H16.5V10C16.5 9.73478 16.3946 9.48043 16.2071 9.29289C16.0196 9.10536 15.7652 9 15.5 9C15.2348 9 14.9804 9.10536 14.7929 9.29289C14.6054 9.48043 14.5 9.73478 14.5 10V14H10.5C10.2348 14 9.98043 14.1054 9.79289 14.2929C9.60536 14.4804 9.5 14.7348 9.5 15C9.5 15.2652 9.60536 15.5196 9.79289 15.7071C9.98043 15.8946 10.2348 16 10.5 16H14.5V20C14.5 20.2652 14.6054 20.5196 14.7929 20.7071C14.9804 20.8946 15.2348 21 15.5 21C15.7652 21 16.0196 20.8946 16.2071 20.7071C16.3946 20.5196 16.5 20.2652 16.5 20V16H20.5C20.7652 16 21.0196 15.8946 21.2071 15.7071C21.3946 15.5196 21.5 15.2652 21.5 15C21.5 14.7348 21.3946 14.4804 21.2071 14.2929C21.0196 14.1054 20.7652 14 20.5 14Z" fill="white"/>
</svg>
