<svg width="24" height="25" viewBox="0 0 24 25" fill="none" xmlns="http://www.w3.org/2000/svg">
<path d="M12 22.1112C6.477 22.1112 2 17.6342 2 12.1112C2 6.58821 6.477 2.11121 12 2.11121C17.523 2.11121 22 6.58821 22 12.1112C22 17.6342 17.523 22.1112 12 22.1112ZM12 20.1112C14.1217 20.1112 16.1566 19.2684 17.6569 17.7681C19.1571 16.2678 20 14.2329 20 12.1112C20 9.98947 19.1571 7.95464 17.6569 6.45435C16.1566 4.95406 14.1217 4.11121 12 4.11121C9.87827 4.11121 7.84344 4.95406 6.34315 6.45435C4.84285 7.95464 4 9.98947 4 12.1112C4 14.2329 4.84285 16.2678 6.34315 17.7681C7.84344 19.2684 9.87827 20.1112 12 20.1112ZM11.003 16.1112L6.76 11.8682L8.174 10.4542L11.003 13.2832L16.659 7.62621L18.074 9.04021L11.003 16.1112Z" fill="#999999"/>
</svg>
