<?xml version="1.0" encoding="UTF-8"?>
<svg id="Layer_1" xmlns="http://www.w3.org/2000/svg" viewBox="0 0 512 512">
  <path d="M511.46,167.43c-1.08-13.85-3.83-27.43-8.43-40.68-7.73-23.68-20.5-44.74-38.95-62.69-15.45-15.85-33.25-27.4-53.36-34.17-16.35-5.85-33.67-8.24-51.94-6.87-33.97,1.71-62.52,16.81-86.65,41.01-5.47,5.49-10.45,11.47-16.13,17.77-5.68-6.3-10.66-12.28-16.13-17.77-24.13-24.2-52.67-39.31-86.65-41.01-18.27-1.37-35.59,1.03-51.94,6.87-20.11,6.77-37.91,18.31-53.36,34.17-18.45,17.96-31.22,39.01-38.95,62.69-4.59,13.25-7.35,26.82-8.43,40.68-.18.65-.38,1.3-.54,1.96v26.31c.61,3.7,1.15,7.42,1.7,11.14.42,3.22.92,6.46,1.48,9.71,0,0,0,0,0,.01.04.22.07.44.11.66.65,3.93,1.39,7.85,2.29,11.73,9.41,40.48,29.22,75.72,54.49,108.03,28.73,36.73,62.79,67.67,100.29,94.54,27.19,19.93,55.83,37.73,85.33,54.27.42.26.84.51,1.25.77,2.84,1.76,5.71,2.71,8.61,2.78.15,0,.3,0,.45,0,.15,0,.3,0,.45,0,2.9-.07,5.77-1.02,8.61-2.78.42-.26.84-.51,1.26-.77,29.5-16.53,58.14-34.34,85.33-54.27,37.5-26.87,71.56-57.81,100.29-94.54,25.27-32.31,45.08-67.55,54.49-108.03.9-3.88,1.63-7.79,2.29-11.73.04-.22.07-.43.11-.65,0,0,0-.02,0-.03.57-3.24,1.07-6.48,1.48-9.7.55-3.72,1.09-7.44,1.7-11.14v-26.31c-.16-.66-.36-1.31-.54-1.96ZM316.85,278.44l-74.04,129.15c-2.83,4.94-10.4,2.2-9.41-3.41l17.13-97.14c.96-5.43-2.67-10.6-8.09-11.56l-40.35-7.11c-6.82-1.2-10.38-8.81-6.94-14.81l74.04-129.15c2.83-4.94,10.4-2.2,9.41,3.41l-17.13,97.14c-.96,5.43,2.67,10.6,8.09,11.56l40.35,7.11c6.82,1.2,10.38,8.81,6.94,14.81Z" style="fill: #ff4a4a;"/>
</svg>