<?xml version="1.0" encoding="UTF-8"?>
<svg id="Layer_1" xmlns="http://www.w3.org/2000/svg" viewBox="0 0 512 512">
  <rect width="512" height="512" rx="70" ry="70" style="fill: #40a4ff;"/>
  <g>
    <path d="M182.04,317.93l-45.42-131.92c-.78-2.28-2.17-4.17-3.91-5.59-.05-.04-.1-.08-.15-.12-.18-.14-.36-.27-.54-.4-.22-.16-.45-.32-.69-.47,0,0-.02,0-.02-.01-1.92-1.21-4.19-1.92-6.63-1.92h-16.39c-4.1,0-7.73,1.98-10.01,5.03-.07.09-.13.17-.19.26-.13.19-.26.39-.39.58-.11.18-.23.36-.33.55-.06.11-.12.22-.18.34-.15.28-.29.57-.42.87,0,0,0,.01,0,.02-.12.28-.25.57-.35.87l-45.42,131.92c-2.25,6.53,1.22,13.64,7.75,15.89,6.53,2.25,13.64-1.22,15.89-7.75l8.87-25.76h66.03l8.87,25.76c2.25,6.53,9.36,10,15.89,7.75h0c6.53-2.25,10-9.36,7.75-15.89ZM92.11,275.31l24.41-70.88,24.41,70.88h-48.81Z" style="fill: #fff;"/>
    <path d="M285.59,177.5h-93c-6.9,0-12.5,5.6-12.5,12.5h0c0,6.9,5.6,12.5,12.5,12.5h34v119.1c0,6.9,5.6,12.5,12.5,12.5s12.5-5.6,12.5-12.5v-119.1h34c6.9,0,12.5-5.6,12.5-12.5h0c0-6.9-5.6-12.5-12.5-12.5Z" style="fill: #fff;"/>
    <path d="M460.18,184.04c-2.12-3.9-6.25-6.54-10.99-6.54h-8.6c-6.13,0-11.22,4.41-12.28,10.23l-38.3,111.24-38.89-112.95c-.77-2.25-2.14-4.13-3.84-5.54-.08-.07-.17-.14-.26-.21-.14-.11-.28-.22-.43-.32-2.07-1.53-4.63-2.44-7.4-2.44h-8.6c-4.75,0-8.87,2.65-10.99,6.54-.96,1.77-1.51,3.8-1.51,5.96v131.6c0,6.9,5.6,12.5,12.5,12.5s12.5-5.6,12.5-12.5v-82.1l29.81,86.58c1.85,5.37,6.99,8.66,12.39,8.41.14,0,.28.02.42.02h8.6c.14,0,.28-.02.42-.02,5.4.25,10.54-3.04,12.39-8.41l29.58-85.89v81.42c0,6.9,5.6,12.5,12.5,12.5s12.5-5.6,12.5-12.5v-131.6c0-2.16-.55-4.19-1.51-5.96Z" style="fill: #fff;"/>
  </g>
</svg>