<?xml version="1.0" encoding="UTF-8"?>
<svg id="Layer_1" xmlns="http://www.w3.org/2000/svg" viewBox="0 0 512 512">
  <path d="M291.75,208.27h219.46v-46.12h-136.74c-50.87,0-82.72,46.12-82.72,46.12" style="fill: #3462a3;"/>
  <path d="M100.99,237.72c26.21-27.05,46.12-29.45,46.12-29.45h60.41s23.02-23.06,65.2-65.99c42.13-42.89,71.53-36.54,71.53-36.54h166.94v-51.63c0-29.88-24.17-54.11-54.07-54.11H54.9C25.06,0,.8,24.22.8,54.11v282.53c23.95-23.42,79.83-77.92,100.2-98.91" style="fill: #3462a3;"/>
  <path d="M147.92,357.74s19.47-20.26,37.34-38.13c17.92-17.92,42.93-14.28,42.93-14.28h283.01v-46.93H217.06c-46.93,0-69.15,30.97-69.15,30.97L1.6,436.42l-.8.62v20.85c0,29.88,24.27,54.11,54.11,54.11h402.23c29.89,0,54.07-24.22,54.07-54.11v-100.15H147.92" style="fill: #3462a3;"/>
</svg>