<?xml version="1.0" encoding="UTF-8"?>
<svg id="Layer_1" data-name="Layer 1" xmlns="http://www.w3.org/2000/svg" viewBox="0 0 512 512">
  <g>
    <circle cx="256" cy="195.04" r="60.95" style="fill: #40a4ff;"/>
    <path d="M256,280.39h0c50.46,0,91.43,40.97,91.43,91.43v67.05c0,13.46-10.92,24.38-24.38,24.38h-134.1c-13.46,0-24.38-10.92-24.38-24.38v-67.05c0-50.46,40.97-91.43,91.43-91.43Z" style="fill: #40a4ff;"/>
  </g>
  <g>
    <circle cx="91.43" cy="109.7" r="60.95" style="fill: #007aff;"/>
    <path d="M181.02,268.15c-1.36-6.69-3.48-13.1-6.21-19.18-2.87-4.3-5.39-8.85-7.56-13.6-16.43-24.32-44.26-40.32-75.82-40.32h0C40.93,195.06,0,235.99,0,286.49v67.05c0,13.47,10.92,24.38,24.38,24.38h103.62v-6.1c0-42.59,20.92-80.39,53.02-103.67Z" style="fill: #007aff;"/>
  </g>
  <path d="M167.25,235.37c2.17,4.75,4.69,9.3,7.56,13.6-2.14-4.76-4.66-9.31-7.56-13.6Z" style="fill: #40a4ff;"/>
  <g>
    <circle cx="420.57" cy="109.7" r="60.95" style="fill: #007aff;"/>
    <path d="M420.57,195.06h0c-31.56,0-59.39,15.99-75.82,40.32-2.17,4.75-4.69,9.3-7.56,13.6-2.74,6.07-4.85,12.49-6.21,19.18,32.1,23.28,53.02,61.08,53.02,103.67v6.1h103.62c13.47,0,24.38-10.92,24.38-24.38v-67.05c0-50.49-40.93-91.43-91.43-91.43Z" style="fill: #007aff;"/>
  </g>
  <path d="M344.75,235.37c-2.89,4.28-5.41,8.84-7.56,13.6,2.87-4.3,5.39-8.85,7.56-13.6Z" style="fill: #40a4ff;"/>
</svg>