<?xml version="1.0" encoding="UTF-8"?>
<svg id="Layer_1" data-name="Layer 1" xmlns="http://www.w3.org/2000/svg" viewBox="0 0 512 125.12">
  <g>
    <path d="M77.27,0H0l26.88,48.23c4.35,6.56,9.75,9.29,19.6,9.29h18.51l-15.79-29.98h24.46c20.01,0,35.28,10.73,38.65,29.98h34.35C141.87,24.81,111.67,0,77.27,0Z" style="fill: #005aa9;"/>
    <path d="M112.31,67.59c-3.37,19.24-18.64,29.97-38.65,29.97h-24.46l15.79-29.97h-18.51c-9.84,0-15.24,2.73-19.6,9.29h0L0,125.12h77.27c34.4,0,64.6-24.81,69.4-57.52h-34.35Z" style="fill: #00bcf1;"/>
  </g>
  <g>
    <path d="M171.98,18.29c-12.33,0-20.21,6.26-20.21,17.66,0,.02.01,2.62.01,2.62h41.44v71.2h30.06V38.57h41.53v-20.29h-92.84Z" style="fill: #005aa9;"/>
    <path d="M486.1,18.29h-62.02c-14.3,0-25.9,11.6-25.9,25.9v39.68c0,14.31,11.59,25.91,25.9,25.91h62.01c14.31,0,25.9-11.6,25.9-25.9v-39.68c0-14.3-11.59-25.91-25.9-25.91ZM434.62,38.57h40.96c3.52,0,6.39,2.86,6.39,6.39v38.13c0,3.53-2.86,6.39-6.39,6.39h-40.96c-3.53,0-6.39-2.86-6.39-6.39v-38.13c0-3.53,2.86-6.39,6.39-6.39Z" style="fill: #005aa9;"/>
    <path d="M359.91,80.63h3.42c6.71,0,12.34-2.08,16.27-6.02,4.24-4.24,6.48-10.49,6.48-18.05v-12.37c0-14.3-11.6-25.91-25.9-25.91h-61.8c-14.31,0-25.91,11.6-25.91,25.9v65.59h29.92V38.57h40.17c5.48,0,8.98.96,11.05,3.03,1.63,1.62,2.42,4.05,2.41,7.42v2.94c0,3.55-.74,5.96-2.35,7.57-1.95,1.95-5.27,2.85-10.46,2.85h-27.33c-2.36,0-4.25.3-4.7,1.21-.44.87.63,2.5,2.4,4.2l43.7,41.98h33.97s-29.87-27.77-31.34-29.15Z" style="fill: #005aa9;"/>
  </g>
</svg>