<?xml version="1.0" encoding="UTF-8"?>
<svg id="Layer_1" xmlns="http://www.w3.org/2000/svg" viewBox="0 0 512 512">
  <rect width="512" height="512" rx="70" ry="70" style="fill: #40a4ff;"/>
  <g>
    <circle cx="232.47" cy="136.53" r="44.53" style="fill: #fff;"/>
    <path d="M397.73,417.52h-22.05l-26.58-85.92c-2.88-9.33-11.51-15.69-21.27-15.69h-73.1v-36.72h66.39c12.3,0,22.27-9.97,22.27-22.27s-9.97-22.27-22.27-22.27h-66.39v-16.75c0-12.3-9.97-22.27-22.27-22.27s-22.27,9.97-22.27,22.27v120.27c0,12.3,9.97,22.27,22.27,22.27h27.43c-9.83,38.48-44.8,67.02-86.3,67.02-49.11,0-89.06-39.95-89.06-89.06s39.95-89.06,89.06-89.06c12.3,0,22.27-9.97,22.27-22.27s-9.97-22.27-22.27-22.27c-73.66,0-133.59,59.93-133.59,133.59s59.93,133.59,133.59,133.59c66.16,0,121.23-48.34,131.77-111.55h6.06l26.58,85.92c2.88,9.33,11.51,15.69,21.27,15.69h38.47c12.3,0,22.27-9.97,22.27-22.27s-9.97-22.27-22.27-22.27Z" style="fill: #fff;"/>
  </g>
  <g>
    <g>
      <circle cx="346.68" cy="51.59" r="11.59" style="fill: #fff;"/>
      <path d="M363.79,67.38h-34.23c-6.96,0-12.6,5.64-12.6,12.6v50.37c0,2.89,2.35,5.24,5.24,5.24h0c2.89,0,5.24-2.35,5.24-5.24v-44.95c0-1.22.89-2.32,2.11-2.43,1.4-.13,2.57.96,2.57,2.33v50.29h0v62.11c0,3.37,2.73,6.1,6.1,6.1h0c3.37,0,6.1-2.73,6.1-6.1v-59.66c0-1.22.89-2.32,2.11-2.43,1.4-.13,2.57.96,2.57,2.33v59.76c0,3.37,2.73,6.1,6.1,6.1h0c3.37,0,6.1-2.73,6.1-6.1v-62.11h0v-50.19c0-1.17.95-2.32,2.11-2.43,1.4-.13,2.57.96,2.57,2.33v45.05c0,2.89,2.35,5.24,5.24,5.24h0c2.89,0,5.24-2.35,5.24-5.24v-50.37c0-6.96-5.64-12.6-12.6-12.6Z" style="fill: #fff;"/>
    </g>
    <g>
      <circle cx="433.88" cy="51.59" r="11.59" style="fill: #fff;"/>
      <path d="M471.82,125.35l-13.04-48.65c-1.29-4.81-5.19-8.21-9.77-9.1-.68-.13-1.38-.21-2.09-.23h-26.5c-.56.02-1.12.09-1.67.19-4.67.82-8.67,4.24-9.98,9.13l-13.04,48.65c-.75,2.8.91,5.67,3.71,6.42,2.8.75,5.67-.91,6.42-3.71l11.66-43.51c.09-.33.24-.62.45-.87l-9.71,64.92c-.38,2.56,1.38,4.89,3.69,4.89h7.4v44.21c0,3.37,2.73,6.1,6.1,6.1,0,0,.01,0,.02,0,0,0,.01,0,.02,0,3.37,0,6.1-2.73,6.1-6.1v-44.21h4.65v44.21c0,3.37,2.73,6.1,6.1,6.1,0,0,.01,0,.02,0,0,0,.01,0,.02,0,3.37,0,6.1-2.73,6.1-6.1v-44.21h7.16c2.31,0,4.07-2.33,3.69-4.89l-9.71-64.9c.2.25.36.53.44.86l11.66,43.51c.75,2.8,3.62,4.46,6.42,3.71,2.8-.75,4.46-3.62,3.71-6.42Z" style="fill: #fff;"/>
    </g>
  </g>
</svg>