<?xml version="1.0" encoding="UTF-8"?>
<svg id="Layer_1" xmlns="http://www.w3.org/2000/svg" viewBox="0 0 512 512">
  <rect y="0" width="512" height="512" rx="70" ry="70" style="fill: #40a4ff;"/>
  <rect x="52.74" y="132.43" width="406.52" height="343.46" rx="52.11" ry="52.11" style="fill: none; stroke: #fff; stroke-miterlimit: 10; stroke-width: 15px;"/>
  <polygon points="188.5 32.77 153.5 93.39 223.5 93.39 188.5 32.77" style="fill: #fff;"/>
  <polygon points="323.5 93.39 358.5 32.77 288.5 32.77 323.5 93.39" style="fill: #fff;"/>
  <g>
    <circle cx="256" cy="191.76" r="18.52" style="fill: #fff;"/>
    <path d="M283.36,217.01h-54.72c-11.12,0-20.14,9.02-20.14,20.14v80.52c0,4.63,3.75,8.38,8.38,8.38h0c4.63,0,8.38-3.75,8.38-8.38v-71.86c0-1.96,1.43-3.7,3.38-3.89,2.23-.21,4.12,1.54,4.12,3.73v80.4h0v99.29c0,5.38,4.36,9.75,9.75,9.75h0c5.38,0,9.75-4.36,9.75-9.75v-95.38c0-1.96,1.43-3.7,3.38-3.89,2.23-.21,4.12,1.54,4.12,3.73v95.55c0,5.38,4.36,9.75,9.75,9.75h0c5.38,0,9.75-4.36,9.75-9.75v-99.29h0v-80.23c0-1.88,1.51-3.71,3.38-3.89,2.23-.21,4.12,1.54,4.12,3.73v72.02c0,4.63,3.75,8.38,8.38,8.38h0c4.63,0,8.38-3.75,8.38-8.38v-80.52c0-11.12-9.02-20.14-20.14-20.14Z" style="fill: #fff;"/>
  </g>
  <g>
    <circle cx="365.99" cy="191.76" r="18.52" style="fill: #fff;"/>
    <path d="M393.35,217.01h-54.72c-11.12,0-20.14,9.02-20.14,20.14v80.52c0,4.63,3.75,8.38,8.38,8.38h0c4.63,0,8.38-3.75,8.38-8.38v-71.86c0-1.96,1.43-3.7,3.38-3.89,2.23-.21,4.12,1.54,4.12,3.73v80.4h0v99.29c0,5.38,4.36,9.75,9.75,9.75h0c5.38,0,9.75-4.36,9.75-9.75v-95.38c0-1.96,1.43-3.7,3.38-3.89,2.23-.21,4.12,1.54,4.12,3.73v95.55c0,5.38,4.36,9.75,9.75,9.75h0c5.38,0,9.75-4.36,9.75-9.75v-99.29h0v-80.23c0-1.88,1.51-3.71,3.38-3.89,2.23-.21,4.12,1.54,4.12,3.73v72.02c0,4.63,3.75,8.38,8.38,8.38h0c4.63,0,8.38-3.75,8.38-8.38v-80.52c0-11.12-9.02-20.14-20.14-20.14Z" style="fill: #fff;"/>
  </g>
  <g>
    <circle cx="146.01" cy="191.76" r="18.52" style="fill: #fff;"/>
    <path d="M173.37,217.01h-54.72c-11.12,0-20.14,9.02-20.14,20.14v80.52c0,4.63,3.75,8.38,8.38,8.38h0c4.63,0,8.38-3.75,8.38-8.38v-71.86c0-1.96,1.43-3.7,3.38-3.89,2.23-.21,4.12,1.54,4.12,3.73v80.4h0v99.29c0,5.38,4.36,9.75,9.75,9.75h0c5.38,0,9.75-4.36,9.75-9.75v-95.38c0-1.96,1.43-3.7,3.38-3.89,2.23-.21,4.12,1.54,4.12,3.73v95.55c0,5.38,4.36,9.75,9.75,9.75h0c5.38,0,9.75-4.36,9.75-9.75v-99.29h0v-80.23c0-1.88,1.51-3.71,3.38-3.89,2.23-.21,4.12,1.54,4.12,3.73v72.02c0,4.63,3.75,8.38,8.38,8.38h0c4.63,0,8.38-3.75,8.38-8.38v-80.52c0-11.12-9.02-20.14-20.14-20.14Z" style="fill: #fff;"/>
  </g>
</svg>