<?xml version="1.0" encoding="UTF-8"?>
<svg id="Layer_1" xmlns="http://www.w3.org/2000/svg" viewBox="0 0 512 512">
  <path d="M508.63,224.62c-1.1-3.52-2.44-6.93-4.02-10.21-1.05-2.19-2.21-4.31-3.46-6.37-6.26-10.31-14.94-18.99-25.25-25.25-2.06-1.25-4.19-2.41-6.37-3.46-3.28-1.58-6.69-2.93-10.21-4.02-7.05-2.19-14.54-3.37-22.3-3.37h-66.3c-1.7,0-3.38.08-5.05.19-13.44-1.12-27.3,2.86-38.45,12.21l-211.76,177.68h-40.38s-.02,0-.03,0-.02,0-.03,0c-41.42,0-75,33.58-75,75s33.58,75,75,75c0,0,.02,0,.03,0s.02,0,.03,0h66.6c1.65,0,3.28-.07,4.9-.18,13.38,1.07,27.17-2.91,38.26-12.22l211.76-177.68h40.44c7.77,0,15.26-1.18,22.3-3.37,3.52-1.1,6.93-2.44,10.21-4.02,3.28-1.58,6.43-3.39,9.42-5.41,3.99-2.7,7.71-5.77,11.1-9.16,13.57-13.57,21.97-32.32,21.97-53.03h0c0-7.77-1.18-15.26-3.37-22.3Z" style="fill: #ffca28;"/>
  <path d="M277.04,174.18c-9.03-31.28-37.86-54.16-72.04-54.16h0c-41.42,0-75,33.58-75,75v102.55l147.04-123.38Z" style="fill: #ffca28;"/>
  <circle cx="205" cy="50" r="50" style="fill: #ffca28;"/>
</svg>