<?xml version="1.0" encoding="UTF-8"?>
<svg id="Layer_1" xmlns="http://www.w3.org/2000/svg" viewBox="0 0 512 512">
  <path d="M156.82,307.85c21.93-19.15,45.67-33.02,68.91-45.55,100.43-54.05,196.77-52.31,245.9-50.55l14.77-57.59c-82.55,2.78-186.71,22.99-288.83,100.8-47.06,35.78-70.72,76.88-69.4,78.31,0,0,50.58-17.58,82.53-23.55,54.45-10.17,109.19-17.65,157.56-8.52-19.38,62.82-77.93,108.6-147.02,108.6-84.82,0-153.81-68.98-153.81-153.81S136.42,102.17,221.24,102.17c21.33,0,41.63,4.42,60.18,12.28,19.66-13.53,45.08-25.87,73.01-34.97-37.09-28.04-83.22-44.72-133.18-44.72C99.25,34.76,0,133.99,0,255.98s99.25,221.26,221.24,221.26,221.24-99.23,221.24-221.26c0-9.95-1.13-19.17-1.32-19.48-2.52-4.33-148-18.55-282.03,73.36-7.37,5.07-14.92,10.4-14.92,10.4,0,0,5.23-6.02,12.62-12.41Z" style="fill: #0066a5;"/>
  <path d="M186.48,213.86c-28.51,31.84-55.55,84.5-59.77,110.5,0,0,24.92-53.05,91.13-99.41,98.63-69.03,160.98-81.74,274.39-93.18l19.77-72.41c-123.33,15.91-230.02,47.75-325.52,154.5Z" style="fill: #8bc53f;"/>
</svg>