<?xml version="1.0" encoding="UTF-8"?>
<svg id="Layer_1" xmlns="http://www.w3.org/2000/svg" viewBox="0 0 512 512">
  <path d="M117.18,242.33l6.91-19.08c18.66-53.08,54.28-105.69,131.92-105.69h193.61l-17.27,47.24h-153.28c-31.57,0-48.44,17.49-64.03,48.57l292.77.03c-21.67-110.65-126.1-194.56-251.79-194.56C114.62,18.84,0,125.03,0,256c0,4.35.15,8.67.39,12.97l394.43-.04-6.91,19.08c-18.67,53.08-54.28,105.67-131.93,105.67H62.39l17.25-47.24h153.31c31.58,0,48.41-17.48,64.02-48.55H4.06c21.35,110.98,125.99,195.27,251.94,195.27,141.39,0,256-106.17,256-237.15,0-4.61-.18-9.17-.46-13.71l-394.37.04Z" style="fill: #18288a;"/>
</svg>