<?xml version="1.0" encoding="UTF-8"?>
<svg id="Layer_1" xmlns="http://www.w3.org/2000/svg" viewBox="0 0 512 512">
  <rect width="512" height="512" rx="70" ry="70" style="fill: #40a4ff;"/>
  <g>
    <circle cx="155.79" cy="94.56" r="26.6" style="fill: #fff;"/>
    <path d="M195.09,130.82h-78.59c-15.97,0-28.92,12.95-28.92,28.92v115.66c0,6.65,5.39,12.03,12.03,12.03h0c6.65,0,12.03-5.39,12.03-12.03v-103.2c0-2.81,2.05-5.32,4.85-5.59,3.21-.31,5.91,2.21,5.91,5.36v115.47h0v142.61c0,7.73,6.27,14,14,14h0c7.73,0,14-6.27,14-14v-137c0-2.81,2.05-5.32,4.85-5.59,3.21-.31,5.91,2.21,5.91,5.36v137.23c0,7.73,6.27,14,14,14h0c7.73,0,14-6.27,14-14v-142.61h0v-115.24c0-2.7,2.17-5.33,4.85-5.59,3.21-.31,5.91,2.21,5.91,5.36v103.44c0,6.65,5.39,12.03,12.03,12.03h0c6.65,0,12.03-5.39,12.03-12.03v-115.66c0-15.97-12.95-28.92-28.92-28.92Z" style="fill: #fff;"/>
  </g>
  <g>
    <circle cx="356.03" cy="94.56" r="26.6" style="fill: #fff;"/>
    <path d="M443.15,263.94l-29.93-111.72c-2.96-11.04-11.93-18.85-22.44-20.88-1.57-.3-3.17-.49-4.79-.52h-60.86c-1.29.05-2.57.21-3.83.43-10.72,1.89-19.92,9.75-22.92,20.95l-29.93,111.72c-1.72,6.42,2.09,13.02,8.51,14.74,6.42,1.72,13.02-2.09,14.74-8.51l26.77-99.91c.2-.76.56-1.43,1.03-2l-22.3,149.07c-.88,5.87,3.16,11.22,8.47,11.22h17v101.51c0,7.73,6.27,14,14,14,.01,0,.03,0,.04,0,.01,0,.03,0,.04,0,7.73,0,14-6.27,14-14v-101.51h10.68v101.51c0,7.73,6.27,14,14,14,.01,0,.03,0,.04,0,.01,0,.03,0,.04,0,7.73,0,14-6.27,14-14v-101.51h16.43c5.31,0,9.35-5.35,8.47-11.22l-22.29-149.02c.46.57.82,1.22,1.02,1.97l26.77,99.91c1.72,6.42,8.32,10.23,14.74,8.51,6.42-1.72,10.23-8.32,8.51-14.74Z" style="fill: #fff;"/>
  </g>
</svg>